<svg width="29" height="44" viewBox="0 0 29 44" fill="none" xmlns="http://www.w3.org/2000/svg">
<path fill-rule="evenodd" clip-rule="evenodd" d="M5.99999 1.89543e-05H22.9997C26.3137 1.89543e-05 29.0001 2.68644 29.0001 5.9999V37.9999C29.0001 41.3137 26.3137 44.0001 22.9997 44.0001H5.99999C2.686 44.0001 -0.000265956 41.3137 -0.000265956 37.9999V5.9999C-0.000265956 2.68644 2.686 1.89543e-05 5.99999 1.89543e-05ZM5.99999 3.00012H22.9997C24.6571 3.00012 25.9999 4.34305 25.9999 5.9999V37.9999C25.9999 39.6568 24.6571 41 22.9997 41H5.99999C4.34339 41 2.99976 39.6568 2.99976 37.9999V5.9999C2.99976 4.34305 4.34339 3.00012 5.99999 3.00012ZM17 35.4999C17 34.1194 15.8806 32.9999 14.5001 32.9999C13.1192 32.9999 11.9998 34.1194 11.9998 35.4999C11.9998 36.8808 13.1192 37.9999 14.5001 37.9999C15.8806 37.9999 17 36.8808 17 35.4999Z" fill="white"/>
</svg>
