<svg width="18" height="21" viewBox="0 0 18 21" fill="none" xmlns="http://www.w3.org/2000/svg">
<path fill-rule="evenodd" clip-rule="evenodd" d="M6.29253 18.9502C6.08032 18.7429 6.08032 18.4071 6.29253 18.1998C6.50492 17.9924 6.84887 17.9924 7.06126 18.1998L7.90192 19.0211L8.82434 18.1204C9.24847 17.706 9.2785 17.0634 8.8539 16.6489L6.9289 14.7685L2.7792 18.8211L4.70484 20.7011C5.1288 21.1156 5.7873 21.0865 6.21129 20.672L7.13383 19.7716L6.29253 18.9502ZM10.259 10.0159C10.2761 9.99903 10.321 10.0102 10.3371 9.9925L10.7494 10.3953C12.4018 12.0091 15.0905 12.0091 16.7436 10.3953C18.396 8.78144 18.396 6.15579 16.7436 4.54169L14.3354 2.19046C12.683 0.576651 9.99427 0.576651 8.34185 2.19046C6.68943 3.80427 6.68943 6.4302 8.34185 8.04375L8.80531 8.49668C8.78751 8.5122 8.73889 8.49804 8.72155 8.51494L0.32061 16.7197C-0.104144 17.1342 -0.104144 17.806 0.32061 18.2207C0.744594 18.6349 1.43264 18.6349 1.85724 18.2207L10.259 10.0159ZM9.87864 3.69118C10.6836 2.90525 11.9937 2.90525 12.7988 3.69147L15.2063 6.0427C16.0112 6.82889 16.0112 8.10807 15.2063 8.89426C14.4014 9.68048 13.0917 9.68048 12.2861 8.89426L9.87864 6.54303C9.07371 5.75683 9.07371 4.47739 9.87864 3.69118Z" fill="#10B2D8"/>
</svg>
