<svg width="20" height="19" viewBox="0 0 20 19" fill="none" xmlns="http://www.w3.org/2000/svg">
<path fill-rule="evenodd" clip-rule="evenodd" d="M7.68895 8.94386C10.2584 8.94386 12.3488 6.96377 12.3488 4.52997C12.3488 2.09616 10.2584 0.116089 7.68895 0.116089C5.11952 0.116089 3.02905 2.09616 3.02905 4.52997C3.02905 6.96377 5.11952 8.94386 7.68895 8.94386ZM7.68895 1.88169C9.23052 1.88169 10.4848 3.06984 10.4848 4.52997C10.4848 5.99036 9.23052 7.17851 7.68895 7.17851C6.14735 7.17851 4.89307 5.99036 4.89307 4.52997C4.89307 3.06984 6.14735 1.88169 7.68895 1.88169ZM7.68895 10.7095C3.44931 10.7095 -9.15527e-05 13.9766 -9.15527e-05 17.9924V18.8753H15.378V17.9924C15.378 13.9766 11.9286 10.7095 7.68895 10.7095ZM1.93853 17.1097C2.38588 14.4857 4.79401 12.4751 7.68895 12.4751C10.5839 12.4751 12.992 14.4857 13.4394 17.1097H1.93853ZM17.383 7.8985H19.9998V9.61722H17.383V12.1173H15.6642V9.61722H13.0861V7.8985H15.6642V5.35922H17.383V7.8985Z" fill="#10B2D8"/>
</svg>
