<svg width="185" height="389" viewBox="0 0 185 389" fill="none" xmlns="http://www.w3.org/2000/svg">
<g id="bullying/amico">
<g id="Shadows">
<path id="shadow" d="M73.6661 388.605C114.351 388.605 147.332 369.564 147.332 346.076C147.332 322.588 114.351 303.547 73.6661 303.547C32.9814 303.547 0 322.588 0 346.076C0 369.564 32.9814 388.605 73.6661 388.605Z" fill="#E0E0E0"/>
</g>
<g id="character 1">
<g id="character">
<g id="Botom">
<path id="Vector" d="M35.9584 322.373C35.9584 322.373 34.2878 276.054 36.9115 258.462C39.154 243.336 42.1141 236.474 42.585 233.043C42.585 233.043 45.3321 197.41 45.9488 167.159C46.2627 152.582 47.7315 142.256 55.9054 125.033L105.936 136.997C106.889 144.689 110.981 196.782 111.306 242.26C111.587 282.087 110.051 316.935 110.051 316.935L109.972 319.021C109.972 321.353 110.443 322.979 111.901 326.735C113.721 331.562 116.357 336.042 119.693 339.977C120.736 341.098 127.991 347.612 128.932 348.947C132.038 352.647 125.501 354.643 120.669 353.936C115.578 353.196 107.674 351.167 105.465 348.038C103.985 345.953 102.942 338.687 101.428 336.568C96.3153 329.437 94.2185 326.365 94.2073 324.1C94.2073 320.018 95.6089 318.415 96.1359 316.117C95.7995 311.284 85.8652 271.513 85.8652 257.464C85.8652 250.736 86.4146 241.565 86.4146 241.565L78.8574 195.123C75.6058 206.66 69.708 228.188 67.7346 239.188C65.3239 252.643 57.2173 291.785 52.2053 309.568C50.3216 316.296 49.4022 319.234 48.8416 323.618C48.8416 323.618 48.6734 325.176 48.6734 325.199C48.5388 327.194 47.4288 348.476 46.5879 352.961C44.8387 362.323 36.4966 361.045 35.2633 353.443C34.142 346.973 35.8463 326.993 35.9024 324.548L35.9584 322.373Z" fill="#B16668"/>
<path id="Vector_2" d="M104.657 120.952L104.568 124.686C110.477 142.805 112.966 181.141 112.652 208.364C112.237 245.242 111.037 284.609 111.037 284.609C111.037 284.609 107.573 287.031 99.9817 287.289C92.3908 287.547 89.8119 284.979 89.8119 284.979C89.8119 284.979 85.3269 269.82 84.7439 259.191C84.3481 253.428 84.4156 247.642 84.9457 241.89L78.6779 197.32C78.6779 197.32 70.1677 239.457 69.0464 244.749C67.9252 250.041 58.3385 288.007 58.3385 288.007C58.3385 288.007 52.2277 292.223 44.9956 291.169C37.7636 290.115 34.8035 286.616 34.8035 286.616C34.8035 286.616 34.6129 267.219 36.1378 256.511C37.6626 245.803 41.2619 237.618 41.8337 230.61C42.4055 223.602 40.5106 192.689 40.7124 177.474C40.8358 167.091 40.2415 159.713 41.6767 152.145C44.5695 136.851 50.5458 129.115 53.0462 123.15L53.3377 119.999C61.7022 126.581 89.8456 130.471 104.657 120.952Z" fill="#10B2D8"/>
<path id="Vector_3" d="M35.9696 322.373C33.615 322.373 35.0502 331.511 34.3775 337.364C33.6599 343.643 31.5519 348.207 30.9016 353.342C30.1616 359.229 30.6549 361.695 32.718 366.55C34.3102 370.34 42.4953 375.588 45.6909 370.239C48.8864 364.891 49.6264 358.758 49.3349 352.894C49.0322 346.839 48.7182 342.399 48.651 337.79C48.5837 333.731 51.8129 324.234 48.7743 323.618L48.6061 325.199C47.4849 327.374 37.0236 328.764 35.8351 324.548L35.9696 322.373Z" fill="#37474F"/>
<path id="Vector_4" d="M93.714 329.056C92.9627 331.982 93.6131 340.033 93.6131 340.033C93.6131 340.033 94.8464 342.825 99.365 344.72L101.518 333.507L93.714 329.056Z" fill="#263238"/>
<path id="Vector_5" d="M99.3314 344.72L109.355 341.558L111.867 332.722L100.587 338.272L99.3314 344.72Z" fill="black"/>
<path id="Vector_6" d="M110.006 318.987L110.084 316.901C111.43 317.574 114.3 328.529 118.247 336.064C121.857 342.937 129.112 346.839 131.444 349.844C134.572 353.858 128.349 358.915 118.482 356.695C113.583 355.573 106.149 352.355 104.209 349.025C102.269 345.695 101.619 339.595 99.993 337.14C98.3672 334.684 94.4877 331.836 93.6916 329.056C93.0677 326.537 93.1024 323.899 93.7925 321.398C94.5998 318.886 95.3062 315.791 96.1695 316.128V318.045C96.8199 319.402 99.1857 321.005 104.186 321.33C106.586 321.476 108.896 321.14 110.006 318.987Z" fill="#37474F"/>
<path id="Vector_7" opacity="0.15" d="M59.2019 123.082C51.8802 138.578 46.2627 152.526 45.7469 177.283C45.6348 182.632 45.5787 187.89 45.5339 192.981C45.3433 210.764 45.1863 226.125 42.6635 233.593C42.1253 235.196 41.5422 236.811 40.9143 238.504C40.1295 240.645 39.2997 242.91 38.47 245.422C37.473 249.069 36.6942 252.771 36.1378 256.511C35.8911 258.226 35.6893 260.166 35.5323 262.218C36.9761 254.26 39.1878 246.461 42.1365 238.93C42.7644 237.214 43.3587 235.566 43.9081 233.985C46.487 226.316 46.6439 210.865 46.8345 192.981C46.8345 187.902 46.9354 182.654 47.0476 177.283C47.5633 152.706 53.1584 138.869 60.4353 123.464C59.9756 123.363 59.5831 123.228 59.2019 123.082Z" fill="black"/>
<path id="Vector_8" opacity="0.15" d="M78.678 197.365L84.6206 169.558C84.6206 169.558 94.4764 167.103 99.1184 161.16C99.1184 161.16 98.3223 168.448 88.1862 172.586L82.0529 198.823L83.0396 228.345L78.678 197.365Z" fill="black"/>
<path id="Vector_9" d="M34.8709 275.684C33.6375 276.346 33.7496 278.073 33.7496 281.818C33.6074 284.271 33.758 286.733 34.1981 289.151C34.5121 290.003 36.6985 292.918 45.4106 293.871C54.1227 294.824 57.5201 291.965 58.2265 290.608C59.3961 287.413 60.3918 284.156 61.209 280.853C61.6799 278.869 60.8053 278.611 60.8053 278.611L60.2335 280.853C60.2335 280.853 56.567 283.78 47.541 283.331C38.5149 282.883 34.983 278.33 34.983 278.33L34.8709 275.684Z" fill="#10B2D8"/>
<path id="Vector_10" opacity="0.6" d="M34.8709 275.684C33.6375 276.346 33.7496 278.073 33.7496 281.818C33.6074 284.271 33.758 286.733 34.1981 289.151C34.5121 290.003 36.6985 292.918 45.4106 293.871C54.1227 294.824 57.5201 291.965 58.2265 290.608C59.3961 287.413 60.3918 284.156 61.209 280.853C61.6799 278.869 60.8053 278.611 60.8053 278.611L60.2335 280.853C60.2335 280.853 56.567 283.78 47.541 283.331C38.5149 282.883 34.983 278.33 34.983 278.33L34.8709 275.684Z" fill="white"/>
<path id="Vector_11" d="M88.1749 278.925C87.3228 279.205 87.4013 280.203 87.7376 282.199C88.074 284.195 89.2065 288.68 89.4868 290.048C89.7671 291.415 94.9136 294.297 102.493 293.411C110.073 292.526 111.463 290.619 111.744 288.635C112.024 286.65 112.282 281.47 112.293 280.08C112.304 278.689 112.125 278.487 111.228 278.174L111.093 280.416C111.093 280.416 109.568 283.185 101.103 283.488C92.6375 283.791 88.6346 280.741 88.6346 280.741L88.1749 278.925Z" fill="#10B2D8"/>
<path id="Vector_12" opacity="0.6" d="M88.1749 278.925C87.3228 279.205 87.4013 280.203 87.7376 282.199C88.074 284.195 89.2065 288.68 89.4868 290.048C89.7671 291.415 94.9136 294.297 102.493 293.411C110.073 292.526 111.463 290.619 111.744 288.635C112.024 286.65 112.282 281.47 112.293 280.08C112.304 278.689 112.125 278.487 111.228 278.174L111.093 280.416C111.093 280.416 109.568 283.185 101.103 283.488C92.6375 283.791 88.6346 280.741 88.6346 280.741L88.1749 278.925Z" fill="white"/>
</g>
<g id="top">
<path id="Vector_13" d="M97.2684 63.5439C102.964 63.5439 105.263 64.5419 108.234 66.2462C111.205 67.9504 113.078 70.5966 114.838 72.7718C119.716 78.8154 130.323 95.3762 137.14 104.985C137.14 104.985 145.931 103.651 152.064 102.171C157.547 100.848 153.981 120.111 143.935 122.667C133.014 125.381 131.814 124.988 126.331 119.517C120.568 113.765 109.613 100.455 105.027 95.0959L97.2684 63.5439Z" fill="#B16668"/>
<path id="Vector_14" d="M137.14 104.974C133.474 105.837 129.919 110.737 129.919 110.737C129.919 110.737 131.253 104.761 136.265 103.741L137.14 104.974Z" fill="#8E5253"/>
<path id="Vector_15" d="M173.323 94.0644L172.257 92.6965C172.089 92.5288 171.884 92.4036 171.657 92.3314C171.431 92.2593 171.191 92.2422 170.957 92.2816L156.235 93.2907C155.484 93.3833 154.762 93.6378 154.12 94.0366C153.477 94.4354 152.929 94.969 152.512 95.6005L136.68 122.578C136.51 122.791 136.409 123.051 136.389 123.323C136.369 123.595 136.431 123.867 136.568 124.103L137.689 125.515C137.856 125.688 138.063 125.818 138.292 125.892C138.521 125.966 138.764 125.983 139.001 125.941L153.723 124.932C154.474 124.841 155.197 124.587 155.839 124.188C156.482 123.789 157.031 123.255 157.446 122.623C160.552 117.319 170.172 100.949 173.278 95.6453C173.648 94.9726 173.637 94.412 173.323 94.0644Z" fill="#455A64"/>
<path id="Vector_16" d="M155.641 95.1857C154.809 95.5947 154.1 96.2178 153.589 96.9909L137.757 123.968C137.596 124.176 137.497 124.426 137.471 124.687C137.446 124.949 137.494 125.213 137.611 125.448L136.568 124.125C136.426 123.893 136.36 123.623 136.378 123.352C136.396 123.081 136.498 122.822 136.669 122.611L152.512 95.623C152.983 94.8956 153.637 94.3042 154.407 93.9075L155.641 95.1857Z" fill="#263238"/>
<path id="Vector_17" d="M137.757 124.035L153.6 97.0469C154.018 96.4169 154.567 95.8845 155.209 95.4859C155.852 95.0873 156.572 94.8319 157.322 94.7371L172.044 93.728C173.401 93.6383 173.951 94.5129 173.255 95.7014C170.15 101.005 160.529 117.375 157.423 122.679C157.008 123.311 156.46 123.846 155.817 124.244C155.174 124.643 154.452 124.897 153.701 124.988L138.979 125.998C137.611 126.031 137.073 125.157 137.757 124.035Z" fill="#37474F"/>
<path id="Vector_18" d="M171.529 89.9158C171.38 89.9158 171.237 89.8567 171.132 89.7516C171.027 89.6464 170.968 89.5038 170.968 89.3551V82.6276C170.971 82.4799 171.031 82.3389 171.135 82.2344C171.24 82.1299 171.381 82.0699 171.529 82.067C171.677 82.067 171.82 82.1261 171.925 82.2312C172.03 82.3364 172.089 82.479 172.089 82.6276V89.3551C172.089 89.5038 172.03 89.6464 171.925 89.7516C171.82 89.8567 171.677 89.9158 171.529 89.9158Z" fill="#E0E0E0"/>
<path id="Vector_19" d="M174.309 90.6221C174.21 90.624 174.113 90.5967 174.029 90.5436C173.902 90.4685 173.809 90.3473 173.769 90.2052C173.73 90.0631 173.746 89.9112 173.816 89.7811L177.18 83.9506C177.212 83.8792 177.259 83.8153 177.318 83.7631C177.376 83.7109 177.445 83.6715 177.52 83.6476C177.594 83.6237 177.673 83.6157 177.751 83.6242C177.829 83.6327 177.905 83.6574 177.972 83.6969C178.04 83.7363 178.099 83.7895 178.145 83.8531C178.191 83.9167 178.223 83.9892 178.239 84.0659C178.255 84.1427 178.255 84.222 178.239 84.2987C178.222 84.3754 178.19 84.4478 178.144 84.5113L174.78 90.3418C174.732 90.4249 174.664 90.4943 174.581 90.5434C174.499 90.5925 174.405 90.6196 174.309 90.6221Z" fill="#E0E0E0"/>
<path id="Vector_20" d="M176.35 92.6403C176.228 92.6391 176.109 92.5978 176.012 92.5229C175.916 92.448 175.846 92.3434 175.814 92.2253C175.783 92.1071 175.79 91.9818 175.836 91.8685C175.882 91.7551 175.964 91.66 176.07 91.5976L181.9 88.2338C182.032 88.1635 182.186 88.1464 182.329 88.1861C182.473 88.2257 182.597 88.3191 182.674 88.4469C182.746 88.5763 182.765 88.7292 182.725 88.8721C182.685 89.015 182.59 89.1363 182.461 89.2093L176.63 92.5731C176.545 92.6223 176.448 92.6457 176.35 92.6403Z" fill="#E0E0E0"/>
<path id="Vector_21" d="M183.862 95.3763H177.135C176.986 95.3763 176.844 95.3172 176.738 95.2121C176.633 95.107 176.574 94.9644 176.574 94.8157C176.574 94.667 176.633 94.5244 176.738 94.4193C176.844 94.3141 176.986 94.2551 177.135 94.2551H183.862C184.011 94.2551 184.154 94.3141 184.259 94.4193C184.364 94.5244 184.423 94.667 184.423 94.8157C184.423 94.9644 184.364 95.107 184.259 95.2121C184.154 95.3172 184.011 95.3763 183.862 95.3763Z" fill="#E0E0E0"/>
<path id="Vector_22" d="M182.293 101.51C182.193 101.511 182.096 101.484 182.012 101.431L176.182 98.0673C176.11 98.035 176.046 97.988 175.994 97.9295C175.942 97.8709 175.903 97.8021 175.879 97.7274C175.855 97.6527 175.847 97.5737 175.855 97.4958C175.864 97.4178 175.889 97.3424 175.928 97.2746C175.967 97.2068 176.021 97.148 176.084 97.1021C176.148 97.0561 176.22 97.024 176.297 97.0078C176.374 96.9917 176.453 96.9918 176.53 97.0082C176.607 97.0246 176.679 97.0569 176.742 97.103L182.573 100.467C182.678 100.529 182.76 100.624 182.806 100.738C182.852 100.851 182.86 100.976 182.828 101.094C182.797 101.213 182.727 101.317 182.63 101.392C182.534 101.467 182.415 101.508 182.293 101.51Z" fill="#E0E0E0"/>
<path id="Vector_23" d="M177.808 106.028C177.708 106.027 177.611 106.001 177.525 105.952C177.438 105.903 177.366 105.833 177.314 105.748L173.951 99.9173C173.877 99.7862 173.859 99.6316 173.899 99.4868C173.938 99.3421 174.034 99.2188 174.164 99.1436C174.293 99.071 174.446 99.0526 174.589 99.0926C174.732 99.1325 174.853 99.2275 174.926 99.3567L178.29 105.187C178.363 105.315 178.383 105.467 178.346 105.61C178.308 105.753 178.215 105.875 178.088 105.95C178.002 105.996 177.906 106.023 177.808 106.028Z" fill="#E0E0E0"/>
<path id="Vector_24" d="M169.69 101.723C172.583 101.622 173.513 104.929 172.022 109.941C170.531 114.953 165.182 123.587 157.962 119.259C155.147 117.566 154.25 111.96 157.962 110.513C161.051 109.428 164.035 108.061 166.876 106.432L169.69 101.723Z" fill="#8E5253"/>
<path id="Vector_25" d="M70.235 63.4206L55.6588 64.9231C58.0919 80.4188 50.445 95.9144 50.445 95.9144C50.0974 105.815 49.0322 117.308 53.349 119.55C53.3786 120.85 53.544 122.142 53.8424 123.407C64.7409 129.014 88.9823 132.456 103.603 124.63L104.725 120.358C108.391 118.003 107.584 107.665 108.257 100.175C117.877 87.0902 104.803 70.3163 97.3244 63.4767L88.0629 63.3758L70.235 63.4206Z" fill="#455A64"/>
<path id="Vector_26" d="M104.568 124.686L104.669 120.391C89.8569 129.911 61.736 126.177 53.3379 119.584L53.0127 123.138C53.0127 123.138 56.8137 129.866 78.039 130.718C99.2642 131.57 104.568 124.686 104.568 124.686Z" fill="#37474F"/>
<path id="Vector_27" d="M93.5122 3.14225C92.7873 3.16113 92.0641 3.06268 91.3706 2.85072C88.6412 1.95032 85.8212 1.35247 82.9612 1.06794C78.1259 0.550329 73.2368 1.19221 68.6989 2.94042C64.8811 4.46976 61.4679 6.86017 58.7257 9.92529C55.9834 12.9904 53.986 16.6474 52.8893 20.6113C50.4338 29.7495 53.6069 38.2822 58.8544 45.0545C61.6238 48.6201 66.6358 52.0511 68.6429 53.4639L70.5266 51.3896C73.7479 53.0097 77.3291 53.7815 80.9318 53.6321C84.4076 53.5424 87.8835 53.9909 91.1575 52.5108C93.0206 51.7136 94.6877 50.5204 96.043 49.0139C97.3984 47.5075 98.4096 45.7241 99.0063 43.7875C99.2583 42.4735 99.6648 41.1939 100.217 39.9753C101.062 38.7568 102.104 37.6881 103.301 36.8134C107.447 33.1634 110.154 28.1537 110.936 22.6856C111.257 21.0605 111.113 19.3778 110.522 17.8306C110.208 17.0685 109.668 16.4216 108.974 15.9782C108.279 15.5347 107.465 15.3162 106.642 15.3526C107.678 13.5994 108.403 11.6798 108.784 9.67913C108.966 8.67502 108.887 7.64074 108.553 6.67631C108.219 5.71188 107.642 4.84992 106.877 4.1738C105.376 3.24013 103.617 2.80818 101.854 2.94042H101.428C99.6566 2.94042 97.8738 2.94042 96.1135 2.94042C95.2277 3.03012 94.3643 3.13104 93.5122 3.14225Z" fill="#263238"/>
<path id="Vector_28" d="M96.9769 13.2784C100.229 15.0275 104.915 20.5889 104.713 37.3404C104.557 51.2102 100.128 55.6392 97.8627 56.7604C95.5977 57.8817 92.1443 57.6798 87.7714 57.1304L87.4687 63.073C94.2635 73.5792 95.4071 79.7685 85.6298 78.8378C73.2288 77.7166 68.8111 67.1656 68.8111 66.0556L68.4972 47.4428C67.3339 47.9897 66.0249 48.1454 64.7658 47.8868C63.5067 47.6281 62.3652 46.9689 61.5118 46.0076C58.3386 42.3524 57.3407 36.9367 60.0093 33.9991C62.6779 31.0614 67.1629 32.1154 69.3493 35.1203C69.3493 35.1203 75.2471 35.8267 82.9837 28.7516C91.3034 21.1495 91.3034 15.8685 96.9769 13.2784Z" fill="#B16668"/>
<path id="Vector_29" d="M69.3941 35.0643L69.3044 41.7918C70.5664 41.8067 71.7827 41.3205 72.6866 40.4397C73.5905 39.559 74.1081 38.3556 74.1258 37.0937L74.2379 29.088L69.3941 35.0643Z" fill="#263238"/>
<path id="Vector_30" d="M101.417 27.608L97.7618 30.0523C97.5907 29.8225 97.4682 29.5601 97.4019 29.2813C97.3356 29.0025 97.3269 28.7131 97.3762 28.4308C97.4255 28.1486 97.5319 27.8793 97.6888 27.6395C97.8457 27.3997 98.0498 27.1944 98.2888 27.0362C98.785 26.7153 99.3849 26.5959 99.9662 26.7021C100.548 26.8084 101.066 27.1324 101.417 27.608Z" fill="#263238"/>
<path id="Vector_31" d="M87.8835 30.3326L83.7573 28.8301C83.8418 28.5573 83.9808 28.3046 84.1659 28.0871C84.3511 27.8697 84.5785 27.6922 84.8343 27.5653C85.0902 27.4384 85.3691 27.3648 85.6543 27.3491C85.9394 27.3333 86.2248 27.3756 86.4931 27.4734C87.0486 27.679 87.5033 28.0912 87.7623 28.6239C88.0214 29.1566 88.0648 29.7687 87.8835 30.3326Z" fill="#263238"/>
<path id="Vector_32" d="M86.908 46.1198L93.1421 47.3531C93.0833 47.7636 92.9412 48.1577 92.7243 48.5112C92.5075 48.8647 92.2206 49.17 91.8814 49.4084C91.5421 49.6469 91.1576 49.8133 90.7516 49.8976C90.3456 49.9819 89.9266 49.9821 89.5205 49.8984C88.6871 49.717 87.9538 49.226 87.4688 48.5245C86.9837 47.823 86.7833 46.9634 86.908 46.1198Z" fill="#B16668"/>
<path id="Vector_33" d="M88.1975 47.2523C87.7863 47.2545 87.3792 47.3343 86.9977 47.4877C87.1506 48.0853 87.468 48.6281 87.914 49.0542C88.36 49.4804 88.9166 49.7729 89.5205 49.8984C90.1195 50.0164 90.7399 49.954 91.3033 49.719C91.141 49.0172 90.7455 48.3911 90.1813 47.943C89.6172 47.495 88.9179 47.2515 88.1975 47.2523Z" fill="#8E5253"/>
<path id="Vector_34" d="M92.3012 31.095L93.1534 42.7223L98.8044 40.9732L92.3012 31.095Z" fill="#8E5253"/>
<path id="Vector_35" d="M87.7939 57.108C83.208 56.6932 73.7222 54.3722 72.0964 50.7169C72.7508 52.5754 73.9651 54.1854 75.5722 55.3253C78.4651 57.5678 87.6032 60.3821 87.6032 60.3821L87.7939 57.108Z" fill="#8E5253"/>
<path id="Vector_36" d="M87.5584 35.1877C87.5606 35.5652 87.4507 35.9348 87.2426 36.2497C87.0345 36.5646 86.7376 36.8107 86.3895 36.9567C86.0414 37.1027 85.6578 37.142 85.2873 37.0698C84.9168 36.9975 84.5761 36.8168 84.3084 36.5507C84.0407 36.2846 83.8581 35.945 83.7836 35.5749C83.7091 35.2049 83.7462 34.821 83.8902 34.4721C84.0341 34.1231 84.2784 33.8248 84.5921 33.6148C84.9058 33.4049 85.2748 33.2928 85.6522 33.2928C86.1558 33.2928 86.639 33.4921 86.9961 33.8471C87.3533 34.2022 87.5554 34.6841 87.5584 35.1877Z" fill="#263238"/>
<path id="Vector_37" d="M101.966 33.6963C101.966 34.0733 101.855 34.4419 101.645 34.7553C101.436 35.0688 101.138 35.3131 100.79 35.4574C100.441 35.6016 100.058 35.6394 99.6883 35.5658C99.3186 35.4923 98.9789 35.3107 98.7123 35.0442C98.4458 34.7776 98.2642 34.438 98.1907 34.0682C98.1171 33.6985 98.1549 33.3152 98.2991 32.9669C98.4434 32.6186 98.6877 32.3209 99.0012 32.1115C99.3147 31.902 99.6832 31.7902 100.06 31.7902C100.566 31.7902 101.051 31.991 101.408 32.3485C101.765 32.706 101.966 33.1908 101.966 33.6963Z" fill="#263238"/>
<path id="Vector_38" d="M62.319 6.58459C55.7484 11.1481 51.2522 17.0122 49.9852 32.3733C48.9985 44.1128 51.6671 51.67 54.5263 54.7983C57.3855 57.9266 69.551 65.495 75.09 60.8867C74.0354 60.5379 73.0641 59.9756 72.2365 59.2349C71.4089 58.4941 70.7428 57.5907 70.2798 56.5811C69.3116 54.0307 68.7479 51.3447 68.6092 48.6202C68.6092 48.6202 63.0029 48.6987 60.7604 46.232C58.5179 43.7652 56.0736 33.2143 56.5557 28.0453C57.1276 22.0018 62.319 6.58459 62.319 6.58459Z" fill="#263238"/>
<path id="Vector_39" d="M93.5122 3.14229C86.2017 3.34412 79.2611 7.05545 72.1076 17.27C68.7438 22.0465 67.6226 29.7159 67.2301 33.1357C66.2112 32.5366 65.0483 32.2265 63.8664 32.2387C62.0612 13.312 73.3185 3.35533 79.463 0.911005C88.3769 -0.423281 93.5122 3.14229 93.5122 3.14229Z" fill="#10B2D8"/>
<path id="Vector_40" d="M38.3019 145.126C37.4722 152.605 36.7097 156.204 37.9319 159.702C38.5992 161.431 39.4328 163.091 40.421 164.658C42.316 168.022 42.6635 169.973 44.2221 173.236C45.3433 175.803 46.7897 176.813 46.3412 177.34C45.7501 177.889 44.973 178.194 44.166 178.194C43.359 178.194 42.582 177.889 41.9908 177.34C40.8136 176.368 39.7793 175.236 38.9186 173.976C39.0553 177.748 39.7273 181.482 40.9144 185.065C43.426 191.927 41.475 194.304 32.6396 191.333C27.1006 189.472 23.4229 182.15 21.7635 168.639C20.8145 160.403 20.5707 152.102 21.0346 143.825C21.7074 130.763 22.4923 120.089 23.4341 116.052C24.376 112.016 29.8028 96.3293 36.9115 82.5492C44.0203 68.769 46.2179 66.5377 55.67 64.8783C57.7404 69.2386 58.7985 74.0105 58.7655 78.8372C58.7325 83.664 57.6092 88.4209 55.4794 92.7526C50.389 102.933 41.8675 122.421 41.8675 122.421C41.8675 122.421 39.1204 137.647 38.3019 145.126Z" fill="#B16668"/>
</g>
</g>
</g>
</g>
</svg>
