<svg width="218" height="337" viewBox="0 0 218 337" fill="none" xmlns="http://www.w3.org/2000/svg">
<g id="mobile-note-list/rafiki">
<g id="Shadow">
<path id="path" d="M113.782 325.392C171.1 325.392 217.565 320.941 217.565 315.45C217.565 309.959 171.1 305.508 113.782 305.508C56.465 305.508 10 309.959 10 315.45C10 320.941 56.465 325.392 113.782 325.392Z" fill="#F5F5F5"/>
</g>
<g id="character">
<path id="Vector" d="M47.228 268.02L17.1619 281.272C16.246 280.537 10.615 270.473 10.615 270.473L37.1985 256.905L47.228 268.02Z" fill="#B16668"/>
<path id="Vector_2" d="M18.2363 284.065C18.2211 284 18.2235 283.932 18.2434 283.869C18.2633 283.805 18.2999 283.748 18.3493 283.703C18.407 283.667 18.4736 283.648 18.5416 283.648C18.6096 283.648 18.6762 283.667 18.7338 283.703C18.9373 283.827 23.6638 286.722 24.2065 289.04C24.2714 289.254 24.2908 289.479 24.2635 289.701C24.2362 289.923 24.1629 290.137 24.0482 290.329C23.9421 290.563 23.7643 290.757 23.5408 290.883C23.3172 291.009 23.0593 291.06 22.8044 291.03C21.8546 290.962 20.8256 289.572 19.9776 288.011C19.2775 286.752 18.6947 285.431 18.2363 284.065ZM23.3698 288.588C22.2537 287.052 20.8478 285.75 19.2313 284.755C20.1359 287.163 21.8433 290.227 22.9288 290.408C23.0758 290.408 23.2906 290.408 23.5281 289.99C23.5995 289.877 23.6457 289.749 23.6632 289.617C23.6808 289.484 23.6694 289.349 23.6299 289.221C23.5744 289.013 23.4947 288.812 23.3924 288.622L23.3698 288.588Z" fill="#407BFF"/>
<path id="Vector_3" d="M18.3266 283.85C18.3418 283.794 18.3719 283.744 18.4138 283.704C18.4556 283.664 18.5076 283.636 18.5641 283.624C18.711 283.624 22.1372 282.109 24.2177 282.957C24.5137 283.086 24.7804 283.274 25.0019 283.509C25.2234 283.744 25.3951 284.022 25.5067 284.325C25.6535 284.567 25.7102 284.852 25.6668 285.132C25.6233 285.411 25.4825 285.666 25.2693 285.851C24.0368 286.835 19.8418 285.365 18.3832 284.268L18.2814 284.155L18.3266 283.85ZM23.9803 283.59C22.4379 283.252 20.8284 283.407 19.3782 284.031C21.0969 285.026 24.2856 285.931 25.0318 285.297C25.0318 285.241 25.2693 285.094 25.0318 284.562L24.8849 284.404C24.7009 284.025 24.3763 283.733 23.9803 283.59Z" fill="#407BFF"/>
<path id="Vector_4" d="M19.4913 280.978L17.5238 279.406C16.436 278.54 15.5455 277.451 14.9118 276.213C14.2781 274.975 13.9157 273.615 13.8489 272.226L13.6906 268.936C13.5784 268.682 13.377 268.479 13.1248 268.365C12.8726 268.25 12.5871 268.232 12.3225 268.314L1.27522 270.768C0.144491 271.084 -0.0477279 273.572 0.00880857 273.685C2.83563 281.385 10.1854 297.362 12.7634 302.53C15.3415 307.697 20.8482 305.786 20.2376 303.434C17.5012 292.896 18.5528 287.853 19.74 283.454C19.9833 282.628 19.894 281.739 19.4913 280.978Z" fill="#263238"/>
<g id="Group" opacity="0.2">
<path id="Vector_5" opacity="0.2" d="M27.8927 261.609L37.1986 256.848L47.2282 268.02L33.4672 274.081L31.0927 271.423C29.6735 269.842 28.7564 267.874 28.4581 265.77L27.8927 261.609Z" fill="black"/>
</g>
<path id="Vector_6" d="M78.2552 148.626C77.3855 150.893 76.7822 153.253 76.4573 155.659C74.5238 168.323 68.6892 233.352 65.7945 234.867C57.1218 239.39 51.4456 240.905 32.2006 258.081C34.8125 263.079 37.2436 266.584 39.6747 272.475C39.6747 272.475 74.7273 260.32 85.9442 248.537C97.4776 236.371 111.849 180.784 115.829 166.164C118.091 157.853 120.68 147.936 115.603 141.062C112.754 137.16 86.0007 126.226 78.2552 148.626Z" fill="#407BFF"/>
<path id="Vector_7" d="M78.2552 148.626C77.3855 150.893 76.7822 153.253 76.4573 155.659C74.5238 168.323 68.6892 233.352 65.7945 234.867C57.1218 239.39 51.4456 240.905 32.2006 258.081C34.8125 263.079 37.2436 266.584 39.6747 272.475C39.6747 272.475 74.7273 260.32 85.9442 248.537C97.4776 236.371 111.849 180.784 115.829 166.164C118.091 157.853 120.68 147.936 115.603 141.062C112.754 137.16 86.0007 126.226 78.2552 148.626Z" fill="black"/>
<path id="Vector_8" opacity="0.5" d="M78.2552 148.626C77.3855 150.893 76.7822 153.253 76.4573 155.659C74.5238 168.323 68.6892 233.352 65.7945 234.867C57.1218 239.39 51.4456 240.905 32.2006 258.081C34.8125 263.079 37.2436 266.584 39.6747 272.475C39.6747 272.475 74.7273 260.32 85.9442 248.537C97.4776 236.371 111.849 180.784 115.829 166.164C118.091 157.853 120.68 147.936 115.603 141.062C112.754 137.16 86.0007 126.226 78.2552 148.626Z" fill="black"/>
<path id="Vector_9" d="M170.693 77.7858L147.139 111.708C145.724 113.781 143.608 115.274 141.18 115.914C137.664 116.796 132.542 117.045 128.415 112.748C124.695 109.271 121.222 105.538 118.023 101.576C111.676 94.0382 105.427 86.402 99.2756 78.6678C96.8332 75.5922 94.3456 72.4035 93.1697 68.6608C91.9937 64.9181 92.3555 60.4065 95.1145 57.6023C98.2692 54.3797 105.415 52.5818 109.486 54.5267C116.836 58.0432 129.726 81.3476 137.155 93.8761C145.443 86.4924 160.9 73.4212 160.9 73.4212L170.693 77.7858Z" fill="#10B2D8"/>
<path id="Vector_10" opacity="0.1" d="M170.693 77.7858L147.139 111.708C145.724 113.781 143.608 115.274 141.18 115.914C137.664 116.796 132.542 117.045 128.415 112.748C124.695 109.271 121.222 105.538 118.023 101.576C111.676 94.0382 105.427 86.402 99.2756 78.6678C96.8332 75.5922 94.3456 72.4035 93.1697 68.6608C91.9937 64.9181 92.3555 60.4065 95.1145 57.6023C98.2692 54.3797 105.415 52.5818 109.486 54.5267C116.836 58.0432 129.726 81.3476 137.155 93.8761C145.443 86.4924 160.9 73.4212 160.9 73.4212L170.693 77.7858Z" fill="black"/>
<path id="Vector_11" d="M118.283 126.475C117.367 133.452 78.7077 135.962 71.3467 129.867L54.8719 73.5229C54.3405 71.6959 54.1963 69.778 54.4486 67.892C54.7009 66.0061 55.3442 64.1935 56.3372 62.5704C57.3302 60.9473 58.6511 59.5494 60.2154 58.4661C61.7797 57.3828 63.5529 56.638 65.4216 56.2793C66.4393 56.0871 67.3439 55.9175 68.1128 55.7479C69.7523 55.4086 70.6682 55.1599 70.2498 55.126C70.2498 55.126 71.064 54.8433 72.5113 54.4475C79.3363 52.454 86.3995 51.3928 93.509 51.2928C99.9654 56.2793 105.28 64.8615 107.281 70.4587C111.555 82.4105 110.787 95.8549 108.616 108.157C107.399 115.53 105.507 122.774 102.962 129.799C102.125 132.061 105.777 132.875 106.614 130.647C113.399 112.556 117.243 90.0768 111.521 71.3519C109.081 63.7025 104.582 56.8722 98.5181 51.6094C104.307 52.3217 109.735 54.3458 113.342 58.6991C116.734 62.781 117.424 69.2375 118.125 72.8784C119.584 80.6239 119.188 119.498 118.283 126.475Z" fill="#10B2D8"/>
<path id="Vector_12" d="M106.569 130.647C105.732 132.909 102.046 132.05 102.916 129.799C105.461 122.774 107.354 115.53 108.57 108.157C110.741 95.8549 111.51 82.4105 107.236 70.4587C105.234 64.8729 99.92 56.2793 93.4635 51.2928C95.1417 51.3014 96.818 51.4071 98.4839 51.6094C104.54 56.8751 109.03 63.7051 111.465 71.3519C117.198 90.0768 113.319 112.59 106.569 130.647Z" fill="#407BFF"/>
<path id="Vector_13" d="M118.283 126.475C120.727 137.783 120.452 149.51 117.48 160.691L114.88 170.506C114.88 170.506 85.2094 184.979 72.6356 172.315C60.0619 159.651 71.3805 129.879 71.3805 129.879C87.0959 130.749 102.858 129.605 118.283 126.475Z" fill="black"/>
<path id="Vector_14" opacity="0.5" d="M118.283 126.475C120.727 137.783 120.452 149.51 117.48 160.691L114.88 170.506C114.88 170.506 85.2094 184.979 72.6356 172.315C60.0619 159.651 71.3805 129.879 71.3805 129.879C87.0959 130.749 102.858 129.605 118.283 126.475Z" fill="black"/>
<path id="Vector_15" opacity="0.4" d="M75.5644 161.471C78.9565 162.33 110.617 188.925 110.617 188.925L103.041 211.89L74.2866 181.191L75.5644 161.471Z" fill="black"/>
<path id="Vector_16" d="M172.015 286.326L175.905 318.948C174.933 319.615 164.236 325.167 163.671 322.057C161.952 312.582 158.401 292.658 158.401 292.658L172.015 286.326Z" fill="#B16668"/>
<path id="Vector_17" d="M178.246 317.896C178.181 317.916 178.112 317.915 178.048 317.895C177.983 317.875 177.926 317.836 177.884 317.783C177.849 317.727 177.83 317.663 177.83 317.597C177.83 317.531 177.849 317.466 177.884 317.41C178.008 317.207 180.847 312.446 183.153 311.858C183.367 311.795 183.591 311.776 183.813 311.801C184.034 311.826 184.248 311.896 184.442 312.005C184.675 312.111 184.869 312.287 184.999 312.507C185.128 312.728 185.187 312.983 185.166 313.238C185.098 314.188 183.73 315.239 182.169 316.098C180.922 316.822 179.608 317.424 178.246 317.896ZM182.769 312.706C181.248 313.845 179.965 315.27 178.992 316.901C181.378 315.951 184.42 314.221 184.544 313.125C184.544 312.978 184.544 312.774 184.114 312.525C183.997 312.453 183.866 312.406 183.73 312.388C183.593 312.371 183.454 312.383 183.323 312.424C183.119 312.488 182.923 312.571 182.735 312.672L182.769 312.706Z" fill="#407BFF"/>
<path id="Vector_18" d="M178.031 317.851C177.973 317.838 177.92 317.808 177.878 317.766C177.836 317.724 177.807 317.672 177.793 317.614C177.737 317.467 176.233 314.063 177.047 311.96C177.176 311.663 177.364 311.394 177.599 311.171C177.834 310.948 178.112 310.774 178.415 310.66C178.648 310.498 178.932 310.429 179.213 310.467C179.493 310.504 179.749 310.646 179.931 310.863C180.926 312.084 179.523 316.302 178.438 317.772L178.336 317.874L178.031 317.851ZM177.692 312.197C177.377 313.747 177.555 315.356 178.2 316.8C179.173 315.058 180.021 311.858 179.331 311.146C179.275 311.146 179.139 310.908 178.608 311.146L178.449 311.293C178.086 311.487 177.808 311.81 177.669 312.197H177.692Z" fill="#407BFF"/>
<path id="Vector_19" d="M175.136 316.72L163.173 322.679C162.922 322.796 162.721 323.001 162.611 323.255C162.5 323.509 162.487 323.795 162.574 324.059L165.163 335.129C165.503 336.259 167.99 336.418 168.103 336.361C175.758 333.421 191.645 325.913 196.779 323.222C201.912 320.531 199.922 315.092 197.581 315.737C187.077 318.609 182.034 317.625 177.613 316.494C176.789 316.244 175.901 316.325 175.136 316.72Z" fill="#263238"/>
<g id="Group_2" opacity="0.2">
<path id="Vector_20" opacity="0.2" d="M160.177 302.507L158.413 292.658L172.027 286.338L173.463 299.703L160.177 302.507Z" fill="black"/>
</g>
<path id="Vector_21" d="M69.3112 168.244C76.7853 180.253 110.018 203.195 126.481 221.796C138.919 235.805 149.39 278.219 157.474 296.209C164.541 294.479 170.907 294.468 175.012 292.817C175.012 292.817 169.969 240.927 166.701 226.827C160.685 200.82 126.243 168.968 92.7173 140.688C87.0637 135.962 78.9789 134.786 71.0638 139.953C69.6165 140.869 62.0745 156.586 69.3112 168.244Z" fill="black"/>
<path id="Vector_22" opacity="0.5" d="M69.3112 168.244C76.7853 180.253 110.018 203.195 126.481 221.796C138.919 235.805 149.39 278.219 157.474 296.209C164.541 294.479 170.907 294.468 175.012 292.817C175.012 292.817 169.969 240.927 166.701 226.827C160.685 200.82 126.243 168.968 92.7173 140.688C87.0637 135.962 78.9789 134.786 71.0638 139.953C69.6165 140.869 62.0745 156.586 69.3112 168.244Z" fill="black"/>
<path id="Vector_23" d="M106.569 130.647C105.732 132.909 102.046 132.05 102.917 129.799C105.462 122.774 107.354 115.53 108.57 108.157C110.741 95.8549 111.51 82.4105 107.236 70.4587C105.235 64.8729 99.9202 56.2793 93.4637 51.2928C88.3189 47.3239 76.5028 47.7762 72.466 54.4475C71.0526 54.8433 70.2046 55.126 70.2046 55.126C70.623 55.126 69.7071 55.4087 68.0675 55.7479C69.8376 52.4666 72.5568 49.7959 75.8694 48.0852C79.182 46.3744 82.9338 45.7032 86.6341 46.1593C91.5754 46.8264 94.4814 48.2398 98.4502 51.6094C104.506 56.8751 108.997 63.7051 111.431 71.352C117.198 90.0768 113.319 112.59 106.569 130.647Z" fill="#263238"/>
<path id="Vector_24" d="M45.3361 95.7113L105.25 126.292C106.116 126.734 106.77 127.501 107.07 128.425C107.369 129.35 107.29 130.355 106.848 131.22L90.1671 163.902C89.405 165.395 88.081 166.524 86.4863 167.041C84.8916 167.558 83.1569 167.42 81.6637 166.658L26.4831 138.494C24.99 137.732 23.8608 136.408 23.3439 134.813C22.8269 133.218 22.9647 131.483 23.7268 129.99L40.4075 97.3089C40.8492 96.4435 41.6166 95.789 42.5409 95.4894C43.4652 95.1898 44.4707 95.2696 45.3361 95.7113Z" fill="#407BFF"/>
<path id="Vector_25" opacity="0.3" d="M45.3361 95.7113L105.25 126.292C106.116 126.734 106.77 127.501 107.07 128.425C107.369 129.35 107.29 130.355 106.848 131.22L90.1671 163.902C89.405 165.395 88.081 166.524 86.4863 167.041C84.8916 167.558 83.1569 167.42 81.6637 166.658L26.4831 138.494C24.99 137.732 23.8608 136.408 23.3439 134.813C22.8269 133.218 22.9647 131.483 23.7268 129.99L40.4075 97.3089C40.8492 96.4435 41.6166 95.789 42.5409 95.4894C43.4652 95.1898 44.4707 95.2696 45.3361 95.7113Z" fill="white"/>
<path id="Vector_26" opacity="0.2" d="M103.177 129.992L43.4627 99.5184C42.5701 99.0632 41.5336 98.9802 40.58 99.2875C39.6263 99.5948 38.8333 100.267 38.3744 101.158L37.7525 102.39C37.1155 103.635 36.7301 104.992 36.6184 106.385C36.5066 107.778 36.6708 109.18 37.1014 110.51C37.532 111.839 38.2207 113.071 39.1279 114.134C40.0351 115.197 41.1431 116.071 42.3885 116.706L89.8791 140.948C92.3922 142.232 95.3122 142.464 97.9968 141.595C100.681 140.726 102.911 138.825 104.194 136.312L104.827 135.08C105.279 134.185 105.358 133.149 105.049 132.196C104.74 131.243 104.067 130.451 103.177 129.992Z" fill="black"/>
<path id="Vector_27" d="M105.155 126.238L45.4415 95.7079C44.5471 95.2565 43.5106 95.1768 42.5576 95.486C41.6047 95.7952 40.8124 96.4683 40.3533 97.3587L39.7314 98.5912C39.0944 99.8353 38.709 101.193 38.5972 102.586C38.4855 103.979 38.6497 105.381 39.0803 106.71C39.5109 108.04 40.1995 109.272 41.1068 110.335C42.014 111.398 43.122 112.272 44.3674 112.906L91.858 137.149C94.3716 138.429 97.2905 138.66 99.9742 137.791C102.658 136.922 104.887 135.024 106.173 132.513L106.806 131.281C107.243 130.391 107.316 129.365 107.007 128.423C106.699 127.481 106.034 126.697 105.155 126.238Z" fill="#407BFF"/>
<path id="Vector_28" d="M105.155 126.238L45.4415 95.7079C44.5471 95.2565 43.5106 95.1768 42.5576 95.486C41.6047 95.7952 40.8124 96.4683 40.3533 97.3587L39.7314 98.5912C39.0944 99.8353 38.709 101.193 38.5972 102.586C38.4855 103.979 38.6497 105.381 39.0803 106.71C39.5109 108.04 40.1995 109.272 41.1068 110.335C42.014 111.398 43.122 112.272 44.3674 112.906L91.858 137.149C94.3716 138.429 97.2905 138.66 99.9742 137.791C102.658 136.922 104.887 135.024 106.173 132.513L106.806 131.281C107.243 130.391 107.316 129.365 107.007 128.423C106.699 127.481 106.034 126.697 105.155 126.238Z" fill="#407BFF"/>
<path id="Vector_29" opacity="0.5" d="M105.155 126.238L45.4415 95.7079C44.5471 95.2565 43.5106 95.1768 42.5576 95.486C41.6047 95.7952 40.8124 96.4683 40.3533 97.3587L39.7314 98.5912C39.0944 99.8353 38.709 101.193 38.5972 102.586C38.4855 103.979 38.6497 105.381 39.0803 106.71C39.5109 108.04 40.1995 109.272 41.1068 110.335C42.014 111.398 43.122 112.272 44.3674 112.906L91.858 137.149C94.3716 138.429 97.2905 138.66 99.9742 137.791C102.658 136.922 104.887 135.024 106.173 132.513L106.806 131.281C107.243 130.391 107.316 129.365 107.007 128.423C106.699 127.481 106.034 126.697 105.155 126.238Z" fill="white"/>
<path id="Vector_30" d="M56.2108 111.824L53.7836 110.585C52.699 110.032 51.3709 110.462 50.8173 111.547L46.0059 120.973C45.4523 122.058 45.8827 123.386 46.9674 123.94L49.3946 125.179C50.4792 125.732 51.8072 125.302 52.3608 124.217L57.1723 114.79C57.7259 113.706 57.2954 112.378 56.2108 111.824Z" fill="#407BFF"/>
<path id="Vector_31" d="M88.355 128.241L85.9276 127.003C84.8428 126.449 83.5149 126.88 82.9615 127.965L78.1517 137.392C77.5982 138.477 78.0289 139.805 79.1137 140.358L81.5411 141.597C82.6258 142.15 83.9538 141.72 84.5072 140.635L89.317 131.207C89.8704 130.123 89.4397 128.795 88.355 128.241Z" fill="#407BFF"/>
<path id="Vector_32" opacity="0.3" d="M56.2108 111.824L53.7836 110.585C52.699 110.032 51.3709 110.462 50.8173 111.547L46.0059 120.973C45.4523 122.058 45.8827 123.386 46.9674 123.94L49.3946 125.179C50.4792 125.732 51.8072 125.302 52.3608 124.217L57.1723 114.79C57.7259 113.706 57.2954 112.378 56.2108 111.824Z" fill="black"/>
<path id="Vector_33" opacity="0.3" d="M88.355 128.241L85.9276 127.003C84.8428 126.449 83.5149 126.88 82.9615 127.965L78.1517 137.392C77.5982 138.477 78.0289 139.805 79.1137 140.358L81.5411 141.597C82.6258 142.15 83.9538 141.72 84.5072 140.635L89.317 131.207C89.8704 130.123 89.4397 128.795 88.355 128.241Z" fill="black"/>
<path id="Vector_34" opacity="0.2" d="M31.2283 140.914C31.2283 140.914 52.3842 153.353 59.1008 142.735L54.069 152.572L31.2283 140.914Z" fill="black"/>
<path id="Vector_35" d="M73.8567 57.7831C74.343 59.2644 80.2567 70.73 83.4001 74.6762C84.4221 73.1213 85.726 71.7714 87.2446 70.6961C87.6926 70.3987 88.2087 70.2199 88.7446 70.1764C89.2806 70.1329 89.8188 70.2261 90.3089 70.4473C94.436 72.3017 97.6247 74.0204 97.6247 74.0204C98.5889 71.353 99.9914 68.8651 101.774 66.6593C103.222 65.1102 106.603 68.3554 108.559 69.2374C107.586 63.9456 103.052 55.0128 98.0204 52.3895C93.5088 50.0263 70.7472 48.2171 73.8567 57.7831Z" fill="white"/>
<path id="Vector_36" d="M177.477 285.829C177.601 285.829 177.997 295.112 177.997 295.112L154.195 299.228L152.646 290.94L177.477 285.829Z" fill="#010611"/>
<path id="Vector_37" opacity="0.6" d="M177.477 285.829C177.601 285.829 177.997 295.112 177.997 295.112L154.195 299.228L152.646 290.94L177.477 285.829Z" fill="white"/>
<path id="Vector_38" d="M47.1262 272.848C47.1262 272.95 39.0189 276.399 39.0189 276.399L28.243 254.756L35.2196 250.607L47.1262 272.848Z" fill="#010611"/>
<path id="Vector_39" opacity="0.6" d="M47.1262 272.848C47.1262 272.95 39.0189 276.399 39.0189 276.399L28.243 254.756L35.2196 250.607L47.1262 272.848Z" fill="white"/>
<path id="Vector_40" d="M165.231 72.8445L154.772 73.2742C154.23 73.3077 153.687 73.2251 153.18 73.0319C152.673 72.8388 152.213 72.5395 151.831 72.1541C151.448 71.7686 151.153 71.306 150.964 70.7972C150.775 70.2883 150.697 69.745 150.735 69.2035L152.058 40.3021C152.088 39.8079 152.297 39.3417 152.647 38.9916C152.997 38.6416 153.464 38.432 153.958 38.4024L166.825 37.871C167.367 37.8374 167.91 37.92 168.417 38.1132C168.924 38.3064 169.384 38.6057 169.767 38.9911C170.149 39.3765 170.444 39.8391 170.633 40.348C170.822 40.8568 170.9 41.4002 170.862 41.9416L169.652 68.4233C169.58 69.5723 169.091 70.6554 168.277 71.4694C167.463 72.2834 166.38 72.7724 165.231 72.8445Z" fill="#407BFF"/>
<path id="Vector_41" opacity="0.2" d="M165.231 72.8445L154.772 73.2742C154.23 73.3077 153.687 73.2251 153.18 73.0319C152.673 72.8388 152.213 72.5395 151.831 72.1541C151.448 71.7686 151.153 71.306 150.964 70.7972C150.775 70.2883 150.697 69.745 150.735 69.2035L152.058 40.3021C152.088 39.8079 152.297 39.3417 152.647 38.9916C152.997 38.6416 153.464 38.432 153.958 38.4024L166.825 37.871C167.367 37.8374 167.91 37.92 168.417 38.1132C168.924 38.3064 169.384 38.6057 169.767 38.9911C170.149 39.3765 170.444 39.8391 170.633 40.348C170.822 40.8568 170.9 41.4002 170.862 41.9416L169.652 68.4233C169.58 69.5723 169.091 70.6554 168.277 71.4694C167.463 72.2834 166.38 72.7724 165.231 72.8445Z" fill="black"/>
<path id="Vector_42" d="M165.819 73.3534L155.36 73.7944C154.819 73.8261 154.277 73.7422 153.77 73.5484C153.264 73.3545 152.805 73.0552 152.423 72.6702C152.041 72.2851 151.745 71.8233 151.556 71.3153C151.366 70.8073 151.287 70.2647 151.323 69.7237L152.646 40.8109C152.674 40.3171 152.883 39.8509 153.234 39.5022C153.584 39.1535 154.052 38.947 154.546 38.9226L167.414 38.3799C167.955 38.3482 168.497 38.432 169.003 38.6259C169.509 38.8197 169.969 39.1191 170.351 39.5041C170.732 39.8891 171.028 40.3509 171.218 40.8589C171.407 41.367 171.486 41.9095 171.45 42.4505L170.24 68.9322C170.173 70.0828 169.686 71.1687 168.871 71.9837C168.056 72.7987 166.97 73.2861 165.819 73.3534Z" fill="#407BFF"/>
<path id="Vector_43" opacity="0.5" d="M165.717 73.3646L155.473 73.783C154.919 73.8143 154.364 73.728 153.846 73.5298C153.328 73.3315 152.857 73.0259 152.465 72.6329C152.073 72.24 151.769 71.7685 151.572 71.2496C151.375 70.7306 151.29 70.1759 151.323 69.6219L152.646 40.9013C152.681 40.3831 152.903 39.8952 153.272 39.5289C153.64 39.1626 154.129 38.9431 154.648 38.9113L167.3 38.3911C167.855 38.358 168.41 38.4431 168.93 38.6406C169.449 38.8382 169.92 39.1438 170.312 39.5371C170.705 39.9305 171.009 40.4027 171.205 40.9225C171.401 41.4423 171.485 41.9977 171.45 42.5522L170.24 68.853C170.168 70.0277 169.668 71.1353 168.834 71.9665C168.001 72.7977 166.892 73.295 165.717 73.3646Z" fill="white"/>
<path id="Vector_44" opacity="0.3" d="M158.933 47.3013L154.342 47.4935C154.085 47.5087 153.828 47.4688 153.588 47.3767C153.348 47.2846 153.13 47.1422 152.949 46.9592C152.768 46.7762 152.628 46.5568 152.539 46.3155C152.45 46.0742 152.413 45.8167 152.431 45.56L152.646 40.8562C152.676 40.35 152.89 39.8724 153.249 39.5138C153.607 39.1553 154.085 38.9409 154.591 38.9113L159.329 38.7191C159.584 38.704 159.84 38.7435 160.078 38.8351C160.317 38.9266 160.534 39.0681 160.714 39.2501C160.893 39.432 161.032 39.6502 161.121 39.8902C161.21 40.1301 161.246 40.3862 161.228 40.6413L161.025 45.1642C160.996 45.714 160.768 46.2345 160.382 46.6279C159.997 47.0213 159.482 47.2608 158.933 47.3013Z" fill="white"/>
<path id="Vector_45" d="M158.526 46.9282L154.353 47.1091C154.097 47.1224 153.841 47.0813 153.601 46.9885C153.362 46.8957 153.145 46.7534 152.965 46.5708C152.784 46.3882 152.644 46.1694 152.554 45.929C152.464 45.6885 152.426 45.4318 152.443 45.1756L152.635 41.0032C152.674 40.4614 152.907 39.9519 153.291 39.5678C153.675 39.1837 154.185 38.9506 154.727 38.9113L158.899 38.7417C159.155 38.7268 159.411 38.7664 159.65 38.8578C159.89 38.9493 160.107 39.0906 160.288 39.2723C160.468 39.454 160.608 39.6721 160.698 39.912C160.788 40.1519 160.826 40.4082 160.81 40.664L160.618 44.8364C160.578 45.3781 160.345 45.8877 159.961 46.2718C159.577 46.6559 159.068 46.8889 158.526 46.9282Z" fill="#263238"/>
<path id="Vector_46" opacity="0.1" d="M158.526 46.9282L154.353 47.1091C154.097 47.1224 153.841 47.0813 153.601 46.9885C153.362 46.8957 153.145 46.7534 152.965 46.5708C152.784 46.3882 152.644 46.1694 152.554 45.929C152.464 45.6885 152.426 45.4318 152.443 45.1756L152.635 41.0032C152.674 40.4614 152.907 39.9519 153.291 39.5678C153.675 39.1837 154.185 38.9506 154.727 38.9113L158.899 38.7417C159.155 38.7268 159.411 38.7664 159.65 38.8578C159.89 38.9493 160.107 39.0906 160.288 39.2723C160.468 39.454 160.608 39.6721 160.698 39.912C160.788 40.1519 160.826 40.4082 160.81 40.664L160.618 44.8364C160.578 45.3781 160.345 45.8877 159.961 46.2718C159.577 46.6559 159.068 46.8889 158.526 46.9282Z" fill="white"/>
<path id="Vector_47" d="M163.501 56.4262C163.476 57.018 163.23 57.5788 162.811 57.9976C162.392 58.4164 161.832 58.6627 161.24 58.6877C160.967 58.7062 160.693 58.6659 160.437 58.5695C160.181 58.473 159.948 58.3227 159.755 58.1286C159.562 57.9346 159.413 57.7013 159.318 57.4447C159.223 57.188 159.184 56.914 159.204 56.641C159.235 56.051 159.482 55.4931 159.9 55.0753C160.318 54.6575 160.876 54.4096 161.466 54.3796C161.738 54.3647 162.01 54.4076 162.265 54.5054C162.519 54.6031 162.75 54.7536 162.942 54.9468C163.134 55.1401 163.284 55.3718 163.38 55.6267C163.476 55.8817 163.518 56.1542 163.501 56.4262Z" fill="white"/>
<path id="Vector_48" d="M170.885 77.7519L172.536 74.3597C173.515 72.4521 173.873 70.2857 173.559 68.1645C173.244 66.0433 172.274 64.0737 170.783 62.5322L167.108 59.0722C167.108 59.0722 160.9 73.6473 162.45 73.8282C163.218 73.9187 163.58 75.3321 166.249 77.0847C166.907 77.5689 167.674 77.8831 168.483 77.9995C169.292 78.1158 170.117 78.0308 170.885 77.7519Z" fill="#B16668"/>
<path id="Vector_49" d="M167.108 59.0496C167.108 59.0496 162.235 58.0772 160.878 59.7394C159.521 61.4015 158.616 68.2538 158.503 69.1583C158.277 71.5668 162.45 73.8056 162.45 73.8056L167.108 59.0496Z" fill="#B16668"/>
<path id="Vector_50" d="M78.5947 40.6752C74.3771 37.4074 70.6117 33.3368 68.7686 28.2937C66.7899 22.9115 67.4457 16.2741 71.4485 12.226C71.7764 11.9094 72.206 11.5702 72.6357 11.7285C72.7935 11.8206 72.9303 11.9446 73.0374 12.0925C73.1445 12.2405 73.2195 12.4092 73.2576 12.5879C73.3481 12.814 73.4272 13.0628 73.5064 13.3003C73.5855 13.5377 73.6873 13.8317 73.7664 14.1031C73.238 15.184 72.8358 16.3223 72.5679 17.4953C72.0685 19.7314 72.0878 22.0522 72.6244 24.2796C73.0089 25.9531 73.3368 27.457 73.676 28.8591C74.9424 34.264 76.0279 37.6562 78.5947 40.6752Z" fill="#263238"/>
<path id="Vector_51" d="M79.4653 41.3423L78.6173 40.6978C76.0505 37.724 74.965 34.2414 73.6986 28.8365C73.3594 27.4344 73.0315 25.9305 72.647 24.257C72.1104 22.0295 72.0911 19.7088 72.5905 17.4726C72.8585 16.2996 73.2606 15.1614 73.7891 14.0804C75.2929 18.886 75.6887 23.9291 76.3558 28.893C76.7623 33.1752 77.8105 37.3719 79.4653 41.3423Z" fill="#263238"/>
<path id="Vector_52" d="M80.3133 35.3947C81.1614 40.9692 81.9076 48.8052 79.0695 53.3733C78.5681 54.1384 78.3067 55.0358 78.3188 55.9505C78.3308 56.8651 78.6159 57.7553 79.1373 58.5068C81.037 61.1301 85.2998 65.0312 94.8997 69.3053C97.523 65.7774 98.4163 62.9619 98.5181 60.8361C98.5552 59.627 98.2191 58.4357 97.5555 57.4243C96.892 56.4128 95.9332 55.6301 94.8093 55.1825C90.1959 53.2376 90.5803 50.5013 91.8015 46.2158L80.3133 35.3947Z" fill="#B16668"/>
<path id="Vector_53" opacity="0.2" d="M84.9492 39.7932L91.7336 46.261C91.3908 47.3907 91.1486 48.5486 91.0099 49.721C88.3527 49.2235 84.2256 46.7585 83.8298 43.796C83.8752 42.3911 84.2593 41.0179 84.9492 39.7932Z" fill="black"/>
<path id="Vector_54" d="M104.047 34.3318C103.9 37.5734 102.549 40.6436 100.26 42.9433C97.9708 45.2431 94.9068 46.6073 91.6659 46.7699H91.5867C89.0668 46.8833 86.5608 46.3376 84.3161 45.1868C83.4835 44.7667 82.689 44.2749 81.9416 43.7169C81.6363 43.5021 81.331 43.2646 81.0596 43.0385C80.1732 42.3291 79.3554 41.5379 78.6173 40.6752C76.0505 37.7014 74.965 34.2188 73.6986 28.8139C73.3594 27.4118 73.0315 25.9079 72.647 24.2344C72.1104 22.0069 72.0911 19.6862 72.5905 17.45C72.8585 16.277 73.2606 15.1388 73.7891 14.0578C74.0215 13.5807 74.286 13.1199 74.5805 12.6784C76.155 10.1767 78.4708 8.22861 81.2051 7.1057C83.9394 5.9828 86.9559 5.74104 89.8341 6.41411C94.7754 7.54484 98.3033 11.3328 100.621 16.1045C100.847 16.5794 101.062 17.0656 101.266 17.5518C103.427 22.8694 104.377 28.6014 104.047 34.3318Z" fill="#B16668"/>
<path id="Vector_55" d="M89.642 24.1891C89.8003 25.0485 90.3656 25.6704 90.9084 25.5913C91.4511 25.5121 91.7904 24.7093 91.6547 23.8499C91.519 22.9906 90.9423 22.3687 90.3996 22.4478C89.8568 22.527 89.5515 23.3637 89.642 24.1891Z" fill="#263238"/>
<path id="Vector_56" d="M99.2077 22.5836C99.3547 23.4655 99.9201 24.0648 100.463 23.9857C101.006 23.9065 101.356 23.1037 101.22 22.2443C101.085 21.385 100.508 20.7631 99.954 20.8649C99.3999 20.9666 99.072 21.7242 99.2077 22.5836Z" fill="#263238"/>
<path id="Vector_57" d="M96.5166 24.6528C97.599 26.4837 98.9225 28.1609 100.452 29.6393C100.074 30.0286 99.6172 30.3313 99.1115 30.5265C98.6059 30.7218 98.0638 30.8049 97.5229 30.77L96.5166 24.6528Z" fill="#8E5253"/>
<path id="Vector_58" d="M93.4751 34.8859C93.8995 34.8819 94.323 34.8441 94.7415 34.7728C94.8064 34.7617 94.8647 34.7263 94.9046 34.6738C94.9445 34.6213 94.963 34.5557 94.9563 34.4901C94.9426 34.425 94.9045 34.3677 94.8498 34.3298C94.7951 34.2919 94.728 34.2765 94.6623 34.2866C93.6109 34.4821 92.5281 34.4263 91.5023 34.1236C90.4765 33.821 89.5368 33.2802 88.7599 32.5452C88.7366 32.5206 88.7086 32.501 88.6775 32.4876C88.6464 32.4741 88.6129 32.4672 88.579 32.4672C88.5451 32.4672 88.5116 32.4741 88.4805 32.4876C88.4493 32.501 88.4213 32.5206 88.3981 32.5452C88.3511 32.5938 88.3248 32.6586 88.3248 32.7262C88.3248 32.7937 88.3511 32.8586 88.3981 32.9071C89.0679 33.5612 89.8627 34.0735 90.735 34.4135C91.6073 34.7535 92.5393 34.9142 93.4751 34.8859Z" fill="#263238"/>
<path id="Vector_59" d="M85.4806 22.8775C85.5877 22.8813 85.6929 22.8487 85.7791 22.785C85.8653 22.7214 85.9275 22.6305 85.9555 22.527C86.2965 21.773 86.7885 21.097 87.4011 20.5408C88.0137 19.9845 88.734 19.5599 89.5173 19.2931C89.647 19.2515 89.7551 19.1607 89.8186 19.0402C89.882 18.9197 89.8956 18.7791 89.8565 18.6486C89.8384 18.5853 89.8078 18.5262 89.7666 18.4747C89.7254 18.4233 89.6744 18.3805 89.6165 18.349C89.5587 18.3174 89.4951 18.2976 89.4295 18.2909C89.364 18.2841 89.2977 18.2904 89.2346 18.3094C88.2897 18.6162 87.4229 19.125 86.6946 19.8007C85.9662 20.4763 85.3938 21.3025 85.017 22.2217C84.9781 22.3477 84.9908 22.4839 85.0523 22.6005C85.1138 22.7171 85.219 22.8046 85.3449 22.8436C85.386 22.8677 85.4331 22.8794 85.4806 22.8775Z" fill="#263238"/>
<path id="Vector_60" d="M101.334 17.597C101.449 17.6007 101.562 17.5649 101.655 17.4957C101.747 17.4264 101.813 17.3278 101.842 17.2159C101.871 17.1041 101.861 16.9857 101.814 16.8803C101.767 16.7749 101.685 16.6887 101.582 16.6359C100.899 16.1974 100.115 15.9385 99.3049 15.8832C98.4945 15.8278 97.6833 15.9778 96.9463 16.3193C96.8315 16.3756 96.7427 16.4739 96.6985 16.594C96.6543 16.714 96.658 16.8464 96.7088 16.9638C96.7376 17.0226 96.7779 17.075 96.8273 17.1178C96.8768 17.1607 96.9344 17.1931 96.9967 17.2132C97.059 17.2333 97.1247 17.2405 97.1899 17.2346C97.2551 17.2286 97.3183 17.2096 97.376 17.1786C97.9608 16.9332 98.5963 16.8328 99.2283 16.886C99.8602 16.9392 100.47 17.1443 101.006 17.4839C101.05 17.5234 101.102 17.5537 101.158 17.5731C101.215 17.5925 101.274 17.6006 101.334 17.597Z" fill="#263238"/>
<path id="Vector_61" opacity="0.2" d="M79.0582 31.5276C78.6398 32.1269 77.0681 29.04 76.3331 28.9157C75.4553 28.7689 74.5624 28.7347 73.6759 28.8139C73.3367 27.4118 73.0088 25.9079 72.6243 24.2344C72.0877 22.0069 72.0684 19.6862 72.5678 17.45C72.8357 16.2771 73.2379 15.1388 73.7663 14.0579C73.6872 13.7865 73.6081 13.5151 73.5063 13.255C73.8339 13.0301 74.1822 12.837 74.5465 12.6784C75.378 12.315 76.292 12.1822 77.1925 12.2939C77.8629 12.4253 78.4925 12.7143 79.0292 13.137C79.5659 13.5597 79.9944 14.104 80.2793 14.725C76.8985 21.826 80.4264 29.6393 79.0582 31.5276Z" fill="black"/>
<path id="Vector_62" d="M78.4362 1.26926C74.7786 2.2958 71.6121 4.60345 69.5148 7.77097C68.2823 9.73844 67.5586 12.6896 68.9494 14.4649C70.0801 15.9348 72.1041 15.7878 73.8115 15.5391L95.8947 12.226C98.4388 11.8416 101.141 11.378 103.064 9.3766C103.913 8.43518 104.545 7.3175 104.912 6.10358C105.28 4.88966 105.374 3.60951 105.189 2.35476C105.291 3.05581 98.9816 3.41765 98.4049 3.38373C95.954 3.19233 93.5701 2.4914 91.4057 1.3258C87.3803 -0.788664 82.6878 -0.0423857 78.4362 1.26926Z" fill="#263238"/>
<path id="Vector_63" d="M71.1429 32.8619C72.1015 34.6446 73.7281 35.9744 75.6659 36.5594C78.2326 37.2831 79.5217 34.9538 78.8093 32.4662C78.1535 30.2047 76.0503 27.1743 73.4723 27.4909C72.905 27.5977 72.373 27.8434 71.9238 28.2059C71.4746 28.5685 71.1223 29.0368 70.8983 29.5688C70.6743 30.1008 70.5856 30.68 70.6401 31.2547C70.6947 31.8293 70.8907 32.3815 71.2108 32.8619H71.1429Z" fill="#B16668"/>
<path id="Vector_64" d="M80.2906 14.6798C80.2906 14.6798 80.1888 16.2628 80.1323 17.7101C80.1163 18.3102 79.9026 18.8883 79.5243 19.3545C79.146 19.8207 78.6244 20.1489 78.0404 20.2882L70.996 21.973C70.996 21.973 67.6603 16.1384 70.7133 15.0755C73.7663 14.0126 80.4263 12.6557 80.2906 14.6798Z" fill="#263238"/>
<path id="Vector_65" d="M63.375 149.316L72.0251 161.392C72.0251 161.392 81.9642 156.021 82.654 155.15C82.654 155.15 80.1437 149.282 75.3947 146.783L70.8717 144.849L63.375 149.316Z" fill="#B16668"/>
<path id="Vector_66" d="M70.5776 159.47L82.3712 154.755L85.3563 159.594C85.4855 159.807 85.5681 160.044 85.5985 160.291C85.6289 160.538 85.6065 160.788 85.5327 161.025C85.4589 161.263 85.3354 161.482 85.1705 161.668C85.0056 161.854 84.803 162.003 84.5761 162.104L78.2666 164.897C77.6039 165.192 76.8628 165.263 76.1564 165.097C75.45 164.932 74.8171 164.54 74.3543 163.981L70.5776 159.47Z" fill="#B16668"/>
<path id="Vector_67" d="M47.8159 69.5202C42.4337 82.026 36.2033 93.209 37.5489 106.258C38.8266 118.696 53.8201 142.079 62.8886 150.707C61.4752 150.073 74.5012 144.386 74.5012 144.386C74.3542 140.394 60.8646 117.045 56.206 107.219C53.0512 100.559 74.4898 76.3611 72.8842 68.7739C68.791 49.2914 51.4004 61.2206 47.8159 69.5202Z" fill="#10B2D8"/>
<path id="Vector_68" opacity="0.1" d="M47.8159 69.5202C42.4337 82.026 36.2033 93.209 37.5489 106.258C38.8266 118.696 53.8201 142.079 62.8886 150.707C61.4752 150.073 74.5012 144.386 74.5012 144.386C74.3542 140.394 60.8646 117.045 56.206 107.219C53.0512 100.559 74.4898 76.3611 72.8842 68.7739C68.791 49.2914 51.4004 61.2206 47.8159 69.5202Z" fill="black"/>
</g>
</g>
</svg>
