<svg width="132" height="381" viewBox="0 0 132 381" fill="none" xmlns="http://www.w3.org/2000/svg">
<g id="safe/amico">
<g id="Shadows">
<path id="shadow" d="M66 380.545C102.451 380.545 132 364.482 132 344.668C132 324.853 102.451 308.79 66 308.79C29.5492 308.79 0 324.853 0 344.668C0 364.482 29.5492 380.545 66 380.545Z" fill="#E0E0E0"/>
</g>
<g id="Character">
<path id="Vector" d="M121.005 166.031C118.697 165.364 116.835 164.057 113.512 163.39C111.199 163.103 108.991 162.259 107.076 160.93C104.574 159.248 99.6673 152.02 95.789 144.819C91.7333 136.631 89.101 127.813 88.0048 118.742C87.1012 107.802 84.5713 93.1645 83.918 86.7702C82.8615 76.6784 79.859 71.4795 68.1964 72.1885C68.1964 72.1885 71.324 75.747 70.4205 84.8658C69.5169 93.9846 72.1441 109.887 74.118 122.231C75.0772 128.208 78.2048 136.409 84.057 147.363C88.1299 155.008 91.8274 161.458 97.5128 167.991C99.0557 169.771 99.7646 171.48 102.322 175.234C103.282 176.847 104.482 178.305 105.881 179.557C107.686 181.021 109.695 182.215 111.844 183.101C114.561 184.237 117.534 184.616 120.449 184.199C122.032 183.994 123.545 183.423 124.869 182.531C126.205 181.598 127.161 180.217 127.566 178.639C127.649 178.325 127.649 177.994 127.566 177.68C127.399 177.11 126.829 176.777 126.315 176.485C123.247 175.074 120.255 173.506 117.349 171.786C115.069 170.215 113.679 168.798 114.207 168.659C114.736 168.52 116.028 169.534 118.378 169.84C120.727 170.146 123.09 169.048 123.145 167.755C123.201 166.462 123.312 166.699 121.005 166.031Z" fill="#9A4A4D"/>
<path id="Vector_2" d="M67.4042 71.5629C71.5744 71.2849 80.5541 70.1729 83.2508 78.6383C85.9476 87.1038 89.0613 118.742 89.8953 122.759C91.2755 128.845 93.1348 134.814 95.4556 140.607C97.9021 146.612 105.005 158.859 105.005 158.859L96.1506 166.407C96.1506 166.407 83.7513 152.02 77.3848 136.743C71.0183 121.466 69.0444 101.741 68.7247 89.9951C68.6361 83.8309 68.1952 77.6768 67.4042 71.5629Z" fill="#10B2D8"/>
<path id="Vector_3" opacity="0.1" d="M67.4042 71.5629C71.5744 71.2849 80.5541 70.1729 83.2508 78.6383C85.9476 87.1038 89.0613 118.742 89.8953 122.759C91.2755 128.845 93.1348 134.814 95.4556 140.607C97.9021 146.612 105.005 158.859 105.005 158.859L96.1506 166.407C96.1506 166.407 83.7513 152.02 77.3848 136.743C71.0183 121.466 69.0444 101.741 68.7247 89.9951C68.6361 83.8309 68.1952 77.6768 67.4042 71.5629Z" fill="black"/>
<path id="Vector_4" d="M75.3135 329.252L87.685 329.683L88.3105 307.234L75.9251 306.803L75.3135 329.252Z" fill="#9A4A4D"/>
<path id="Vector_5" d="M28.9829 344.654H41.3683V323.442H28.9829V344.654Z" fill="#9A4A4D"/>
<path id="Vector_6" d="M41.3683 338.552V336.772C42.5498 337.287 45.3021 347.795 50.2229 352.285C54.129 355.844 59.453 359.958 60.8152 363.934C62.1775 367.91 53.3923 370.356 49.6948 369.703C45.4551 368.952 38.1016 365.963 36.2529 363.197C34.4041 360.431 33.5423 356.344 32.0827 354.315C30.6231 352.285 27.1341 350.02 26.314 347.67C25.8691 346.378 26.3973 343.5 27.0229 341.165C27.6484 338.83 28.2322 336.564 28.969 336.772V338.162C30.7344 339.551 32.9228 340.292 35.1686 340.261C36.9757 340.289 41.3822 339.928 41.3683 338.552Z" fill="#263238"/>
<path id="Vector_7" d="M87.824 325.86C88.4635 325.86 88.9917 326.792 90.4095 328.321C92.5238 330.467 94.9867 332.239 97.6935 333.561C102.336 335.897 111.358 339.469 115.431 341.304C117.988 342.444 117.863 345.474 115.236 347.281C112.609 349.088 106.228 350.298 98.5553 348.588C94.3851 347.656 88.9778 343.82 85.5443 344.028C82.1109 344.237 75.7027 344.181 73.1728 342.43C70.6429 340.678 71.6437 336.967 72.3666 333.756C73.145 330.267 74.257 324.915 75.4247 325.151V326.25C76.912 328.515 84.5018 329.433 87.7684 327.765L87.824 325.86Z" fill="#263238"/>
<path id="Vector_8" d="M34.2651 147.738C24.5346 167.672 34.14 242.846 34.14 242.846C33.7924 246.099 29.9003 252.451 28.1766 266.811C26.1471 283.769 27.8986 327.362 27.8986 327.362C27.8986 327.362 35.9887 330.948 42.5776 327.973C42.5776 327.973 54.2124 263.28 56.7423 246.432C58.9386 231.726 63.2617 199.365 63.2617 199.365L72.3249 246.71C70.7256 251.428 69.5351 256.274 68.7663 261.195C67.5709 271.106 74.688 317.367 74.688 317.367C79.0893 319.214 83.9803 319.541 88.5885 318.298C88.5885 318.298 92.7587 256.899 93.982 244.945C95.9559 224.873 90.1315 162.084 88.0742 148.948L34.2651 147.738Z" fill="#263238"/>
<path id="Vector_9" d="M47.2203 72.0077C44.0927 72.3691 36.8644 73.6341 36.8644 73.6341C32.0687 75.3855 32.583 78.3325 31.3041 82.9336C29.6639 88.6328 30.7342 98.808 32.6942 104.41L41.9798 131.252C38.5046 139.592 35.1685 142.067 33.5004 148.447C48.666 159.693 81.2629 159.025 88.2688 149.545C88.5607 147.53 85.8918 124.441 84.7797 114.168C89.5059 105.592 91.313 99.4475 88.8387 92.8725C84.599 81.6269 72.9781 71.1181 67.4596 71.5629L47.2203 72.0077Z" fill="#10B2D8"/>
<path id="Vector_10" d="M56.6451 62.3468H52.0718C45.6754 62.3468 39.541 59.8059 35.0181 55.283C30.4952 50.7601 27.9542 44.6257 27.9542 38.2293C27.9542 31.7998 30.5084 25.6336 35.0547 21.0872C39.6011 16.5408 45.7673 13.9867 52.1969 13.9867H56.5199C62.9495 13.9867 69.1157 16.5408 73.6621 21.0872C78.2085 25.6336 80.7626 31.7998 80.7626 38.2293C80.7626 44.6257 78.2216 50.7601 73.6987 55.283C69.1758 59.8059 63.0414 62.3468 56.6451 62.3468Z" fill="#263238"/>
<path id="Vector_11" d="M72.8669 22.7857C75.7722 24.5094 79.3724 31.835 79.011 47.1812C78.7191 60.1783 74.4933 63.3893 72.3804 64.3207C70.2675 65.252 66.1808 64.6821 62.2052 64.0149V71.8826L61.4129 81.0431L45.872 73.9399V55.0212C45.872 55.0212 43.1892 58.5936 38.8105 55.6884C34.4318 52.7832 34.265 45.5688 36.8088 42.9833C39.3526 40.3978 44.8573 41.2179 45.872 44.7903C45.872 44.7903 47.6513 41.0511 56.7422 37.9374C66.3198 34.6568 69.503 28.902 72.8669 22.7857Z" fill="#B16668"/>
<path id="Vector_12" d="M63.0393 43.9147C63.0416 44.236 62.9495 44.551 62.7743 44.8204C62.5992 45.0899 62.3487 45.3019 62.0541 45.4302C61.7595 45.5586 61.4337 45.5976 61.1171 45.5423C60.8005 45.4871 60.5071 45.34 60.2734 45.1195C60.0396 44.8989 59.8758 44.6146 59.8023 44.3018C59.7288 43.9889 59.7487 43.6614 59.8598 43.3598C59.9708 43.0582 60.1679 42.7959 60.4268 42.6054C60.6856 42.4149 60.9947 42.3047 61.3156 42.2883C61.7594 42.2771 62.1896 42.4417 62.5125 42.7464C62.8354 43.051 63.0247 43.471 63.0393 43.9147Z" fill="#263238"/>
<path id="Vector_13" d="M64.9299 54.9378L68.7247 56.1471C68.6608 56.4038 68.5453 56.6447 68.3852 56.8552C68.2251 57.0657 68.0238 57.2414 67.7935 57.3714C67.5633 57.5015 67.3089 57.5833 67.046 57.6118C66.7831 57.6403 66.5171 57.6149 66.2643 57.5372C65.7456 57.3652 65.3152 56.9965 65.0656 56.5104C64.816 56.0242 64.7673 55.4595 64.9299 54.9378Z" fill="#9A4A4D"/>
<path id="Vector_14" d="M76.4395 38.8826L73.1311 36.589C73.2702 36.362 73.4546 36.1662 73.6729 36.0139C73.8913 35.8616 74.1387 35.756 74.3997 35.7038C74.6607 35.6516 74.9297 35.6539 75.1898 35.7105C75.45 35.7672 75.6955 35.877 75.9112 36.033C76.3516 36.3468 76.6528 36.8194 76.7514 37.351C76.8499 37.8827 76.7381 38.4319 76.4395 38.8826Z" fill="#263238"/>
<path id="Vector_15" d="M75.6889 42.6914C75.7177 42.9155 75.6999 43.1432 75.6365 43.3602C75.5731 43.5771 75.4656 43.7786 75.3207 43.952C75.1758 44.1255 74.9966 44.2671 74.7944 44.368C74.5922 44.4689 74.3713 44.5269 74.1456 44.5385C73.9199 44.55 73.6943 44.5147 73.4829 44.435C73.2714 44.3552 73.0787 44.2325 72.9169 44.0748C72.7551 43.917 72.6276 43.7275 72.5425 43.5181C72.4574 43.3088 72.4164 43.0841 72.4222 42.8582C72.4052 42.6397 72.4318 42.4201 72.5003 42.212C72.5689 42.0039 72.6782 41.8115 72.8217 41.6459C72.9653 41.4804 73.1403 41.345 73.3366 41.2477C73.5329 41.1504 73.7466 41.093 73.9652 41.0789C74.4067 41.0676 74.8349 41.2304 75.1574 41.532C75.4799 41.8337 75.6708 42.2502 75.6889 42.6914Z" fill="#263238"/>
<path id="Vector_16" d="M67.6958 41.7879L67.9599 51.6295L73.1309 50.0309L67.6958 41.7879Z" fill="#9A4A4D"/>
<path id="Vector_17" d="M62.2053 64.0149C58.0351 63.4728 49.4306 60.9985 48.0823 57.5928C48.6189 59.3176 49.6717 60.8362 51.0987 61.9437C53.6703 64.14 62.2192 66.6282 62.2192 66.6282L62.2053 64.0149Z" fill="#9A4A4D"/>
<path id="Vector_18" d="M63.2615 199.365L67.9877 176.415C67.9877 176.415 77.8571 174.761 83.0976 171.022C80.1213 174.628 76.268 177.409 71.9076 179.098L66.4864 200.755L67.8765 223.274L63.2615 199.365Z" fill="black"/>
<path id="Vector_19" d="M45.5522 29.7917C45.5522 29.7917 64.2346 42.5107 77.2178 36.1581C90.2009 29.8056 73.3812 20.8675 73.3812 20.8675L45.5522 29.7917Z" fill="#37474F"/>
<path id="Vector_20" d="M73.2422 3.13031C62.1217 0.0165778 50.0699 -1.98511 36.0581 3.13031C22.0463 8.24573 18.9882 16.8919 18.9882 16.8919C18.9882 16.8919 33.2502 22.5355 44.8572 20.6311C56.4642 18.7268 73.2422 3.13031 73.2422 3.13031Z" fill="#10B2D8"/>
<path id="Vector_21" opacity="0.4" d="M73.2422 3.13031C62.1217 0.0165778 50.0699 -1.98511 36.0581 3.13031C22.0463 8.24573 18.9882 16.8919 18.9882 16.8919C18.9882 16.8919 33.2502 22.5355 44.8572 20.6311C56.4642 18.7268 73.2422 3.13031 73.2422 3.13031Z" fill="white"/>
<path id="Vector_22" d="M26.7864 22.1324C26.7864 22.1324 19.6554 18.7406 18.9882 16.864C24.5356 17.4957 30.1513 17.1333 35.5716 15.7937C44.8433 13.5557 54.4903 4.54812 64.9296 2.96346C75.369 1.37879 79.8172 6.70272 79.8172 6.70272C79.8172 6.70272 77.5096 14.1256 73.8955 18.6294C73.8955 18.6294 70.6706 25.677 58.3825 27.3034C46.0943 28.9298 26.7864 22.1324 26.7864 22.1324Z" fill="#10B2D8"/>
<path id="Vector_23" d="M26.7864 22.1324L27.3702 24.1619C27.5922 24.8488 27.9538 25.4824 28.4322 26.023C28.9106 26.5636 29.4955 26.9995 30.1503 27.3035C39.2175 30.9137 49.1229 31.8777 58.716 30.0836C67.3483 28.485 71.2266 26.2748 72.7973 24.6067C73.3588 24.1131 73.7822 23.4819 74.0259 22.7751C74.2697 22.0684 74.3253 21.3103 74.1874 20.5756L73.8955 18.6017C73.8955 18.6017 71.2266 22.327 57.1175 25.0933C43.0084 27.8595 26.7864 22.1324 26.7864 22.1324Z" fill="#455A64"/>
<path id="Vector_24" d="M66.0139 7.11981C65.9027 9.3022 63.609 13.3056 60.5648 11.4151V16.9753C60.5648 20.381 62.5665 21.5625 65.8054 20.8814C67.4168 20.5766 68.8686 19.7118 69.9039 18.4399C70.9392 17.1679 71.4914 15.5709 71.4629 13.9311C71.4629 12.8885 71.4629 9.2049 71.4629 9.2049C69.072 12.4298 65.9722 7.93995 66.0139 7.11981Z" fill="#FAFAFA"/>
<path id="Vector_25" d="M45.8721 48.1543V40.7731H48.7495V45.2769C48.7495 46.0401 48.4463 46.7719 47.9067 47.3116C47.3671 47.8512 46.6352 48.1543 45.8721 48.1543Z" fill="#263238"/>
<path id="Vector_26" d="M61.4128 80.9875L45.872 69.6585V66.8784C45.872 66.8784 42.6053 67.4344 41.813 73.6619C44.2444 79.0342 48.4038 83.4382 53.6285 86.1724L56.8395 80.4871L61.4128 80.9875Z" fill="#10B2D8"/>
<path id="Vector_27" opacity="0.1" d="M61.4128 80.9875L45.872 69.6585V66.8784C45.872 66.8784 42.6053 67.4344 41.813 73.6619C44.2444 79.0342 48.4038 83.4382 53.6285 86.1724L56.8395 80.4871L61.4128 80.9875Z" fill="black"/>
<path id="Vector_28" d="M62.2052 67.5178C64.2246 67.8434 66.0413 68.9335 67.2789 70.5621C68.808 73.0781 68.4605 82.6695 68.4605 82.6695L64.3875 78.0267L61.4128 80.9875C61.7465 77.7904 62.2052 71.827 62.2052 71.827V67.5178Z" fill="#10B2D8"/>
<path id="Vector_29" opacity="0.1" d="M62.2052 67.5178C64.2246 67.8434 66.0413 68.9335 67.2789 70.5621C68.808 73.0781 68.4605 82.6695 68.4605 82.6695L64.3875 78.0267L61.4128 80.9875C61.7465 77.7904 62.2052 71.827 62.2052 71.827V67.5178Z" fill="black"/>
<path id="Vector_30" d="M49.4166 181.419C47.4844 180.029 46.2195 178.111 43.3282 176.318C41.2572 175.244 39.4816 173.679 38.1571 171.758C36.4057 169.298 34.3345 160.819 33.2224 152.715C31.9019 143.151 33.3614 130.168 34.0426 124.802C35.5489 114.499 37.6374 104.289 40.2978 94.221C40.409 93.7622 37.9069 79.7782 35.1546 77.5402C35.1546 77.5402 31.9992 77.0954 27.9541 85.3246C23.909 93.5537 21.9213 111.736 20.8092 123.954C19.8919 132.996 20.0598 142.115 21.3096 151.116C22.4495 159.707 23.6588 167.032 26.7031 175.15C27.5232 177.36 27.5927 179.209 28.6769 183.616C29.0179 185.46 29.6268 187.244 30.484 188.912C31.6698 190.912 33.1349 192.733 34.8349 194.319C36.9876 196.333 39.6429 197.73 42.5219 198.364C44.0938 198.739 45.7319 198.739 47.3037 198.364C48.8871 197.931 50.2659 196.951 51.1959 195.598C51.3955 195.335 51.5204 195.023 51.5573 194.694C51.5191 194.102 51.2495 193.547 50.8067 193.151C48.4315 190.758 46.1812 188.243 44.0649 185.617C42.4663 183.338 41.6601 181.517 42.2161 181.586C42.7722 181.656 43.6062 183.046 45.7468 184.172C47.8875 185.298 50.4452 185.075 50.9596 183.88C51.4739 182.684 51.3488 182.837 49.4166 181.419Z" fill="#9A4A4D"/>
<path id="Vector_31" d="M36.6421 73.6619C36.6421 73.6619 43.5924 87.6876 40.4925 100.073C37.6429 111.388 36.0305 125.872 35.4188 129.931C34.5634 136.111 34.1916 142.348 34.3068 148.586C34.5014 155.064 36.8784 169.02 36.8784 169.02L25.9942 173.051C25.9942 173.051 19.4054 155.231 18.7798 138.689C18.1543 122.147 19.7529 102.547 22.4357 91.0654C23.6172 86.1168 25.0073 75.6496 36.6421 73.6619Z" fill="#10B2D8"/>
<path id="Vector_32" opacity="0.1" d="M36.6421 73.6619C36.6421 73.6619 43.5924 87.6876 40.4925 100.073C37.6429 111.388 36.0305 125.872 35.4188 129.931C34.5634 136.111 34.1916 142.348 34.3068 148.586C34.5014 155.064 36.8784 169.02 36.8784 169.02L25.9942 173.051C25.9942 173.051 19.4054 155.231 18.7798 138.689C18.1543 122.147 19.7529 102.547 22.4357 91.0654C23.6172 86.1168 25.0073 75.6496 36.6421 73.6619Z" fill="black"/>
<path id="Vector_33" d="M47.8319 97.5292C47.8319 97.5292 58.2017 97.0983 62.4692 95.4442V93.373C58.1461 95.0272 47.8319 95.5137 47.8319 95.5137V97.5292Z" fill="#37474F"/>
<path id="Vector_34" d="M25.174 89.9533C25.174 89.9533 28.4406 88.8135 32.9444 91.3434L33.0556 90.8847C33.1058 90.6469 33.0757 90.3992 32.9701 90.1804C32.8644 89.9615 32.6892 89.7839 32.4718 89.6753C30.5347 88.6571 28.3329 88.2546 26.1609 88.5216C25.9558 88.5575 25.766 88.6532 25.6151 88.7966C25.4643 88.94 25.3591 89.1248 25.313 89.3278L25.174 89.9533Z" fill="#37474F"/>
<path id="Vector_35" d="M30.9391 96.3009C31.4801 93.873 30.4424 91.576 28.6215 91.1703C26.8006 90.7646 24.886 92.4039 24.3451 94.8317C23.8042 97.2596 24.8418 99.5567 26.6627 99.9623C28.4836 100.368 30.3982 98.7287 30.9391 96.3009Z" fill="#37474F"/>
</g>
</g>
</svg>
