<svg width="25" height="23" viewBox="0 0 25 23" fill="none" xmlns="http://www.w3.org/2000/svg">
<path fill-rule="evenodd" clip-rule="evenodd" d="M0.5888 7.77708C0.5888 3.8409 3.77105 0.655224 7.70357 0.655224C11.6361 0.655224 14.8185 3.8409 14.8185 7.77708C14.8185 11.7146 11.6355 14.9003 7.70357 14.9003H1.14452C0.83741 14.9003 0.5888 14.6509 0.5888 14.3443V7.77708ZM16.8961 22.012C13.9327 22.012 11.3948 20.2025 10.3243 17.6253C14.4599 16.4684 17.4998 12.5923 17.4998 7.98854C17.4998 7.92253 17.4992 7.85667 17.4979 7.79097C21.1483 8.09633 24.011 11.1545 24.011 14.8888V21.455C24.011 21.7619 23.7623 22.012 23.4553 22.012H16.8961Z" fill="white"/>
</svg>
