<svg width="22" height="22" viewBox="0 0 22 22" fill="none" xmlns="http://www.w3.org/2000/svg">
<path fill-rule="evenodd" clip-rule="evenodd" d="M18.778 3.22179C14.4823 -1.07393 7.51761 -1.07393 3.22189 3.22179C0.572412 5.87118 -0.442995 9.53593 0.175673 12.9636C0.235057 13.2932 0.309128 13.6177 0.397182 13.9364C0.886546 15.7098 1.82812 17.3845 3.22189 18.7782C4.56711 20.1236 6.17427 21.0477 7.8793 21.5503C8.37189 21.6958 8.87887 21.8077 9.3976 21.8834C10.4285 22.0343 11.4767 22.0387 12.5086 21.8966C14.802 21.5808 17.0148 20.5414 18.778 18.7782C23.0738 14.4825 23.0738 7.5175 18.778 3.22179ZM11 20.1663C16.0618 20.1663 20.1657 16.0626 20.1657 11.0004C20.1657 5.93818 16.0618 1.83458 11 1.83458C5.93731 1.83458 1.83416 5.93818 1.83416 11.0004C1.83416 16.0626 5.93731 20.1663 11 20.1663ZM4.43722 17.5627C0.812624 13.9383 0.812624 8.06194 4.43722 4.43734C8.06165 0.812743 13.9382 0.812743 17.5627 4.43734L4.43722 17.5627Z" fill="white"/>
</svg>
