<svg width="40" height="40" viewBox="0 0 40 40" fill="none" xmlns="http://www.w3.org/2000/svg">
<path fill-rule="evenodd" clip-rule="evenodd" d="M20 2.00272e-05C31.0455 2.00272e-05 39.9999 8.95421 39.9999 20C39.9999 31.0457 31.0455 39.9999 20 39.9999C8.95455 39.9999 0.000229955 31.0457 0.000229955 20C0.000229955 8.95421 8.95455 2.00272e-05 20 2.00272e-05ZM20 3.00008C29.3888 3.00008 37.0003 10.6111 37.0003 20C37.0003 29.3888 29.3888 37.0001 20 37.0001C10.6112 37.0001 2.99966 29.3888 2.99966 20C2.99966 10.6111 10.6112 3.00008 20 3.00008ZM13.7633 16.881L11.6446 19.0001L9.51567 16.881L11.6446 14.7626L9.51567 12.6435L11.6446 10.5149L13.7633 12.6435L15.8822 10.5149L18.0011 12.6435L15.8822 14.7626L18.0011 16.881L15.8822 19.0001L13.7633 16.881ZM20 22.9979C15.3425 22.9979 11.3848 25.9162 9.78594 29.9938H30.2141C28.6153 25.9162 24.6575 22.9979 20 22.9979ZM26.2366 12.6435L28.3556 10.5149L30.4843 12.6435L28.3556 14.7626L30.4843 16.881L28.3556 19.0001L26.2366 16.881L24.1178 19.0001L21.9988 16.881L24.1178 14.7626L21.9988 12.6435L24.1178 10.5149L26.2366 12.6435Z" fill="white"/>
</svg>
