<svg width="17" height="15" viewBox="0 0 17 15" fill="none" xmlns="http://www.w3.org/2000/svg">
<path fill-rule="evenodd" clip-rule="evenodd" d="M13.6311 2.14279C13.1935 0.894442 12.0128 2.5034e-05 10.625 2.5034e-05C9.23724 2.5034e-05 8.05653 0.894442 7.6189 2.14279H0.99994C0.447781 2.14279 -2.99811e-05 2.59052 -2.99811e-05 3.1429V3.2857C-2.99811e-05 3.83808 0.447781 4.28583 0.99994 4.28583H7.61891C8.05654 5.53418 9.23724 6.42859 10.625 6.42859C12.0128 6.42859 13.1935 5.53418 13.6311 4.28583H16C16.5523 4.28583 17 3.83808 17 3.2857V3.1429C17 2.59052 16.5523 2.14279 16 2.14279H13.6311ZM9.38117 10.7144H16C16.5523 10.7144 17 11.1621 17 11.7142V11.857C17 12.4094 16.5523 12.8572 16 12.8572H9.38107C8.94347 14.1055 7.76282 14.9999 6.37496 14.9999C4.98724 14.9999 3.80653 14.1055 3.36889 12.8572H0.99994C0.447781 12.8572 -2.99811e-05 12.4094 -2.99811e-05 11.857V11.7142C-2.99811e-05 11.1621 0.447781 10.7144 0.99994 10.7144H3.3688C3.80635 9.4659 4.98714 8.57136 6.37496 8.57136C7.76293 8.57136 8.94365 9.4659 9.38117 10.7144ZM10.625 2.14279C11.2118 2.14279 11.6875 2.62268 11.6875 3.2143C11.6875 3.80593 11.2118 4.28583 10.625 4.28583C10.0382 4.28583 9.56248 3.80593 9.56248 3.2143C9.56248 2.62268 10.0382 2.14279 10.625 2.14279ZM7.43748 11.7856C7.43748 11.194 6.9618 10.7144 6.37496 10.7144C5.78815 10.7144 5.31247 11.194 5.31247 11.7856C5.31247 12.3775 5.78815 12.8572 6.37496 12.8572C6.9618 12.8572 7.43748 12.3775 7.43748 11.7856Z" fill="white"/>
</svg>
