<svg width="16" height="23" viewBox="0 0 16 23" fill="none" xmlns="http://www.w3.org/2000/svg">
<path fill-rule="evenodd" clip-rule="evenodd" d="M13.9976 7.99807H12.998V5.99703C12.998 3.1956 10.7988 0.9945 8 0.9945C5.20118 0.9945 3.00203 3.1956 3.00203 5.99703V7.99807H2.00236C0.90287 7.99807 0.00321198 8.89872 0.00321198 9.99912V20.0044C0.00321198 21.1051 0.90287 22.0055 2.00236 22.0055H13.9976C15.0971 22.0055 15.9968 21.1051 15.9968 20.0044V9.99912C15.9968 8.89872 15.0971 7.99807 13.9976 7.99807ZM8 2.89555C9.69931 2.89555 11.0988 4.29628 11.0988 5.99703V7.99807H5.00118V5.99703H4.90119C4.90119 4.29628 6.30067 2.89555 8 2.89555ZM13.9976 20.0044H2.00236V9.99912H13.9976V20.0044Z" fill="white"/>
</svg>
