<svg width="15" height="21" viewBox="0 0 15 21" fill="none" xmlns="http://www.w3.org/2000/svg">
<path fill-rule="evenodd" clip-rule="evenodd" d="M6.66518 1.70469e-05H8.33477C11.4119 1.70469e-05 13.9062 2.49432 13.9062 5.57154V12.1734H14.0001C14.5523 12.1734 15 12.6212 15 13.1735V13.7C15 14.2524 14.5523 14.6999 14.0001 14.6999H13.9062H11.7812H3.2187H1.0937H1.00005C0.447754 14.6999 -7.70092e-05 14.2524 -7.70092e-05 13.7V13.1735C-7.70092e-05 12.6212 0.447754 12.1734 1.00005 12.1734H1.0937V5.57154C1.0937 2.49432 3.5882 1.70469e-05 6.66518 1.70469e-05ZM11.7812 5.81432V12.1734H3.2187V5.81432C3.2187 3.76286 4.88164 2.09999 6.93296 2.09999H8.06698C10.1183 2.09999 11.7812 3.76286 11.7812 5.81432ZM9.2188 19.1462C9.2188 18.1221 8.44916 17.2923 7.49997 17.2923C6.55079 17.2923 5.7813 18.1221 5.7813 19.1462C5.7813 20.17 6.55079 21.0001 7.49997 21.0001C8.44916 21.0001 9.2188 20.17 9.2188 19.1462Z" fill="white"/>
</svg>
