<svg height="512" viewBox="0 0 512 512" width="512" xmlns="http://www.w3.org/2000/svg"><g id="filled_outline" data-name="filled outline"><path d="m392 488h-272v-208l64-16h144l64 16z" fill="#4799cf"/><path d="m256 360-56 24-8-104z" fill="#3775a4"/><path d="m256 360 56 24 8-104z" fill="#3775a4"/><path d="m256 360-40-48h80z" fill="#eeb58e"/><path d="m120 384h-64v-40a64 64 0 0 1 64-64z" fill="#3775a4"/><path d="m456 344v40h-64v-104a63.966 63.966 0 0 1 64 64z" fill="#3775a4"/><path d="m208 488h-132a19.994 19.994 0 0 1 -20-20v-84h64v32l6.77 5.54z" fill="#fdc9a6"/><path d="m256 360-23.33 10 7.33 22h32l7.33-22z" fill="#2c5d83"/><path d="m280 488h-48l8-96h32z" fill="#2c5d83"/><path d="m456 344v8h-12a20 20 0 0 1 0-40h3.44a63.64 63.64 0 0 1 8.56 32z" fill="#e4e4e2"/><path d="m152 384h56v32h-56z" fill="#3775a4"/><path d="m152 416h56v24h-56z" fill="#2c5d83"/><rect fill="#f3af3e" height="48" rx="24" width="48" x="312" y="384"/><path d="m328 288a32 32 0 0 1 -32 32 75.779 75.779 0 0 1 -33.889 8h-12.222a75.779 75.779 0 0 1 -33.889-8 32 32 0 0 1 -32-32v-136h144z" fill="#fdc9a6"/><path d="m240 248a35.1 35.1 0 0 0 -24 33.3v6.7h80v-6.7a35.1 35.1 0 0 0 -24-33.3z" fill="#8f563b"/><circle cx="284" cy="208" fill="#cd9c7a" r="12"/><circle cx="220" cy="208" fill="#cd9c7a" r="12"/><path d="m184 152 .21.419a80.261 80.261 0 0 0 49.74 41.281 80.256 80.256 0 0 0 44.1 0 80.261 80.261 0 0 0 49.74-41.281l.21-.419v-16h-144z" fill="#2c5d83"/><path d="m184 208h-32v-48a32 32 0 0 1 32-32z" fill="#8f563b"/><path d="m328 208h32v-48a32 32 0 0 0 -32-32z" fill="#8f563b"/><path d="m328 120v8h-144v-8l-24-56 7.522-1.567a207.475 207.475 0 0 0 58.45-21.751l26.339-14.633a8 8 0 0 1 7.463-.162l39.853 19.927a207.542 207.542 0 0 0 42.47 15.71l9.903 2.476z" fill="#2c5d83"/><path d="m328 240h-8v-48h24a16 16 0 0 1 16 16 32 32 0 0 1 -32 32z" fill="#fdc9a6"/><path d="m184 240h8v-48h-24a16 16 0 0 0 -16 16 32 32 0 0 0 32 32z" fill="#fdc9a6"/><path d="m256 262.317a22.128 22.128 0 0 1 -21.725-26.487l5.88-29.4a8 8 0 1 1 15.69 3.138l-5.88 29.4a6.155 6.155 0 0 0 8.787 6.712l9.67-4.835a8 8 0 1 1 7.156 14.31l-9.67 4.835a22.153 22.153 0 0 1 -9.908 2.327z" fill="#cd9c7a"/><rect fill="#3775a4" height="32" rx="16" width="176" x="168" y="120"/><path d="m256 120a32 32 0 0 1 -32-32v-24a24.818 24.818 0 0 0 28.649-4.649l3.351-3.351 3.351 3.351a24.818 24.818 0 0 0 28.649 4.649v24a32 32 0 0 1 -32 32z" fill="#f3af3e"/><path d="m208 488h-96l-16-48 30.77-18.46z" fill="#f6bb92"/><path d="m128 488-16-48 40-24 32 24 208-24v-32h64v84a20 20 0 0 1 -20 20z" fill="#fdc9a6"/><path d="m454.75 308.758a7.968 7.968 0 0 0 -.818-1.421 72.02 72.02 0 0 0 -60.832-35.309l-57.1-14.274v-10.554a40.068 40.068 0 0 0 32-39.2v-48a40.011 40.011 0 0 0 -17.883-33.316 24.141 24.141 0 0 0 -11.13-12.01l20.367-47.523a8 8 0 0 0 -5.414-10.912l-9.9-2.476a199.86 199.86 0 0 1 -40.833-15.1l-39.854-19.931a15.991 15.991 0 0 0 -14.926.324l-26.34 14.633a199.291 199.291 0 0 1 -56.2 20.912l-7.523 1.567a8 8 0 0 0 -5.722 10.983l20.367 47.523a24.141 24.141 0 0 0 -11.13 12.01 40.011 40.011 0 0 0 -17.879 33.316v48a40.068 40.068 0 0 0 32 39.2v10.559l-57.1 14.274a72.071 72.071 0 0 0 -70.9 71.967v124a28.032 28.032 0 0 0 28 28h360a28.032 28.032 0 0 0 28-28v-124a71.54 71.54 0 0 0 -9.25-35.242zm-12.129 11.328a55.655 55.655 0 0 1 5.379 23.914h-4a12 12 0 0 1 -1.379-23.914zm-9.4-13.939a28.008 28.008 0 0 0 10.779 53.853h4v16h-48v-87.43a55.929 55.929 0 0 1 33.216 17.577zm-49.221-19.901v122.624l-16.132 1.861c.078-.907.132-1.817.132-2.731a32 32 0 0 0 -47.676-27.9l5-64.94a39.841 39.841 0 0 0 10.676-27.16v-13.754zm-200-158.246h144a8 8 0 0 1 0 16h-144a8 8 0 0 1 0-16zm48-40v-13.518a32.771 32.771 0 0 0 24-7.376 32.761 32.761 0 0 0 24 7.376v13.518a24 24 0 0 1 -48 0zm120 72v25.376a23.889 23.889 0 0 0 -8-1.376h-8v-25.376a24.125 24.125 0 0 0 12.774-10.624 23.981 23.981 0 0 1 3.226 12zm-109.414 214.454 13.414-5.754 13.414 5.75-3.181 9.55h-20.466zm26.228-17.665 20.191-25.236a83.7 83.7 0 0 0 8.931-3.6 39.785 39.785 0 0 0 10.5-1.946l-3.56 46.238zm-12.94-9.437-9.53-11.436c1.181.05 2.363.084 3.545.084h12.222c.964 0 1.927-.023 2.89-.057zm19.978-161.345a72.245 72.245 0 0 1 -77.566-26.007h115.428a72.46 72.46 0 0 1 -37.862 26.007zm-3.489 70.756a27.047 27.047 0 0 1 15.606 23.237h-63.938a27.054 27.054 0 0 1 16.76-23.747 22.161 22.161 0 0 0 25.117 3.737zm-54.352-60.585a12.01 12.01 0 1 0 11.516 4.546q1.107.348 2.225.668a88.481 88.481 0 0 0 9.6 2.165 7.979 7.979 0 0 0 -1.194 2.874l-5.88 29.4a22.034 22.034 0 0 0 -.355 5.945 43.042 43.042 0 0 0 -25.923 39.524v6.7a8 8 0 0 0 8 8h80a8 8 0 0 0 8-8v-6.7a43.052 43.052 0 0 0 -29.469-40.889 4.275 4.275 0 0 0 -1.977-.384 7.954 7.954 0 0 0 -4.132.818l-9.67 4.835a6.155 6.155 0 0 1 -8.787-6.712l5.88-29.4a7.963 7.963 0 0 0 -.527-4.789c.227 0 .454.012.682.012a88.147 88.147 0 0 0 17.047-1.678 12 12 0 1 0 17.29-5.291 88.6 88.6 0 0 0 29.663-20.549v110.727a24.028 24.028 0 0 1 -24 24 7.994 7.994 0 0 0 -3.578.845 68.118 68.118 0 0 1 -30.311 7.155h-12.222a68.118 68.118 0 0 1 -30.311-7.155 7.994 7.994 0 0 0 -3.578-.845 24.028 24.028 0 0 1 -24-24v-110.727a88.628 88.628 0 0 0 26.011 18.905zm-3.947 131.776q3.6 1.7 7.357 3.045l21.562 25.876-35.864 15.371-3.56-46.238a39.785 39.785 0 0 0 10.505 1.946zm-14.064 64.046v16h-40v-16zm0 32v6.1l-13.75 1.587-10.25-7.687zm16-38.153 11.828-5.07 4.063 12.193-2.819 33.776-13.072 1.509zm31.36 14.153h17.278l1.866 22.427-21.219 2.449zm35.047 20.592-2.3-27.621 4.063-12.194 24.534 10.515a31.995 31.995 0 0 0 -3.128 26.627zm39.763-4.592a16 16 0 1 1 29.13-3.361zm13.83-185.371v-30.629h8a8.009 8.009 0 0 1 8 8 24.042 24.042 0 0 1 -16 22.629zm-106.144-182.953 26.344-14.634 39.85 19.927a215.918 215.918 0 0 0 44.107 16.317l.789.2-18.221 42.514h-34.747a39.788 39.788 0 0 0 8.022-24v-24a8 8 0 0 0 -11.578-7.155 16.8 16.8 0 0 1 -19.414-3.15l-3.351-3.351a8 8 0 0 0 -11.314 0l-3.35 3.35a16.8 16.8 0 0 1 -19.415 3.151 8 8 0 0 0 -11.578 7.155v24a39.788 39.788 0 0 0 8.022 24h-34.747l-18.075-42.172a215.234 215.234 0 0 0 58.656-22.152zm-66.63 100.324a24.125 24.125 0 0 0 12.774 10.624v25.376h-8a23.889 23.889 0 0 0 -8 1.376v-25.376a23.981 23.981 0 0 1 3.226-12zm-3.226 60a8.009 8.009 0 0 1 8-8h8v30.629a24.042 24.042 0 0 1 -16-22.629zm26.676 107.164 4.684 60.836h-39.36a8 8 0 0 0 -8 8v27.47l-9.752 5.852-6.248-5.113v-125.963l48-12v13.754a39.841 39.841 0 0 0 10.676 27.164zm-122.676 28.836a56.086 56.086 0 0 1 48-55.43v87.43h-48zm0 124v-76h48v24a8 8 0 0 0 2.934 6.191l4.737 3.877-11.787 7.072a8 8 0 0 0 -3.474 9.39l12.49 37.47h-40.9a12.013 12.013 0 0 1 -12-12zm384 0a12.013 12.013 0 0 1 -12 12h-302.234l-12.147-36.442 29.881-17.931 27.7 20.773a8 8 0 0 0 5.717 1.547l208-24a8 8 0 0 0 7.083-7.947v-24h48z"/></g></svg>