<svg height="512pt" viewBox="0 0 512 512" width="512pt" xmlns="http://www.w3.org/2000/svg"><path d="m121 256v168.578125c-17.460938 6.195313-30 22.867187-30 42.421875v45h330v-45c0-19.554688-12.539062-36.226562-30-42.421875v-168.578125c0-74.4375-60.5625-135-135-135s-135 60.5625-135 135zm270 226h-270v-15c0-8.269531 6.730469-15 15-15h240c8.269531 0 15 6.730469 15 15zm-135-331c57.898438 0 105 47.101562 105 105v166h-210v-166c0-57.898438 47.101562-105 105-105zm0 0"/><path d="m241 211h30v90h-30zm0 0"/><path d="m241 331h30v30h-30zm0 0"/><path d="m0 241h61v30h-61zm0 0"/><path d="m451 241h61v30h-61zm0 0"/><path d="m425.703125 65.078125 21.214844 21.214844-42.425781 42.425781-21.214844-21.214844zm0 0"/><path d="m107.507812 128.722656-42.425781-42.425781 21.210938-21.214844 42.425781 42.425781zm0 0"/><path d="m241 0h30v61h-30zm0 0"/></svg>