<svg id="Layer_2" enable-background="new 0 0 512 512" height="512" viewBox="0 0 512 512" width="512" xmlns="http://www.w3.org/2000/svg"><g><g><g><g><path d="m193.519 248.104-16.803-78.697c-1.711-7.988-8.773-13.417-16.627-13.407-1.173.001-20 0-20 0l11.965 60.618 7.795 36.403-43.441 43.441 24.042 24.042 44.94-44.94c7.185-7.186 10.245-17.521 8.129-27.46z" fill="#6e83b7"/></g><g><path d="m159.849 253.021-43.441 43.441 24.041 24.042 21.639-21.639z" fill="#466089"/></g><g><path d="m10.658 248.104 16.803-78.697c1.711-7.988 8.773-13.417 16.627-13.407 1.173.001 20 0 20 0l-11.965 60.618-7.795 36.403 43.441 43.441-24.042 24.042-44.94-44.94c-7.185-7.186-10.245-17.521-8.129-27.46z" fill="#6e83b7"/></g><g><path d="m44.328 253.021 43.441 43.441-24.042 24.042-21.639-21.639z" fill="#466089"/></g><g><path d="m156.088 102h-4v-30h4c3.314 0 6 2.686 6 6v18c0 3.314-2.686 6-6 6z" fill="#ffd3b3"/></g><g><path d="m48.088 102h4v-30h-4c-3.314 0-6 2.686-6 6v18c0 3.314 2.687 6 6 6z" fill="#ffd3b3"/></g><g><path d="m52.088 156h100v138h-100z" fill="#6e83b7"/></g><g><path d="m63.329 156 24.535 42.935 14.224-13.13 14.225 13.13 24.534-42.935z" fill="#466089"/></g><g><path d="m119.088 156-17 23-17-23v-12h34z" fill="#fcb98b"/></g><g><path d="m52.088 294v188h42v-155h16v155h42v-188z" fill="#6e83b7"/></g><g><path d="m49.088 502h48v-9c0-13.255-10.745-24-24-24-13.255 0-24 10.745-24 24z" fill="#466089"/></g><g><path d="m102.088 152c-27.614 0-50-22.386-50-50v-30h100v30c0 27.614-22.385 50-50 50z" fill="#ffd3b3"/></g><g><path d="m152.088 92-10-16v-4h10z" fill="#466089"/></g><g><path d="m52.088 92 10-16v-4h-10z" fill="#466089"/></g><g><path d="m52.088 287h100v12h-100z" fill="#466089"/></g><g><path d="m119.088 287h5v12h-5z" fill="#6e83b7"/></g><g><path d="m140.088 287h5v12h-5z" fill="#6e83b7"/></g><g><path d="m80.088 287h5v12h-5z" fill="#6e83b7"/></g><g><path d="m59.088 287h5v12h-5z" fill="#6e83b7"/></g><g><path d="m92.088 285h20v16h-20z" fill="#ffe352"/></g><g><path d="m107.088 502h48v-9c0-13.255-10.745-24-24-24-13.255 0-24 10.745-24 24z" fill="#466089"/></g><g><path d="m85.088 156h-16l20 35 13-12z" fill="#6e83b7"/></g><g><path d="m119.088 156h16l-20 35-13-12z" fill="#6e83b7"/></g><g><path d="m102.088 198.054h4.027l4.844-10.866-8.871-8.188-8.87 8.188 4.844 10.866z" fill="#466089"/></g><g><path d="m106.115 198.054 5.947 69.946-9.974 10-9.973-10 5.947-69.946z" fill="#466089"/></g><g><path d="m124.088 203h21v6h-21z" fill="#466089"/></g><g><path d="m59.088 203h21v6h-21z" fill="#466089"/></g><g><g><path d="m102.088 73.281h49.424l14.576-23.752-15.686-26.902-48.314-12.627-48.313 12.627-15.687 26.902 14.577 23.752z" fill="#466089"/></g><g><path d="m102.088 10-48.313 12.627 22.697 50.654h25.616 25.616l22.698-50.654z" fill="#6e83b7"/></g><g><path d="m52.128 81.961s4.756 6.039 49.961 6.039 49.961-6.039 49.961-6.039v-8.784h-99.922z" fill="#6e83b7"/></g><g><path d="m102.088 73.725c-31.04 0-49.961 8.784-49.961 8.784v-16.47s18.92-8.784 49.961-8.784 49.961 8.784 49.961 8.784v16.471s-18.92-8.785-49.961-8.785z" fill="#466089"/></g><g><path d="m152.049 67.686h3.294v11.529h-3.294z" fill="#ffe352"/></g><g><path d="m48.833 67.686h3.294v11.529h-3.294z" fill="#ffe352"/></g></g><g><path d="m102.088 60s17.02-2.745 17.02-16.471c0-2.745-2.745-6.039-2.745-10.431 0-2.033 1.078-6.69 4.941-9.333l-3.294-6.039c-8.784 3.294-15.922-1.647-15.922-1.647s-7.137 4.941-15.922 1.647l-3.294 6.039c3.863 2.643 4.941 7.3 4.941 9.333 0 4.392-2.745 7.686-2.745 10.431.001 13.726 17.02 16.471 17.02 16.471z" fill="#ffe352"/></g></g><g><path d="m135.088 153h22v6h-22z" fill="#466089"/></g><g><path d="m47.088 153h22v6h-22z" fill="#466089" transform="matrix(-1 0 0 -1 116.177 312)"/></g></g><g><g><g><path d="m501.519 248.104-16.803-78.697c-1.711-7.988-8.773-13.417-16.627-13.407-1.173.001-20 0-20 0l11.965 60.618 7.795 36.403-43.441 43.441 24.042 24.042 44.94-44.94c7.185-7.186 10.245-17.521 8.129-27.46z" fill="#6e83b7"/></g><g><path d="m467.849 253.021-43.441 43.441 24.041 24.042 21.639-21.639z" fill="#466089"/></g><g><path d="m318.658 248.104 16.803-78.697c1.711-7.988 8.773-13.417 16.627-13.407 1.173.001 20 0 20 0l-11.965 60.618-7.795 36.403 43.441 43.441-24.042 24.042-44.94-44.94c-7.185-7.186-10.245-17.521-8.129-27.46z" fill="#6e83b7"/></g><g><path d="m352.328 253.021 43.441 43.441-24.042 24.042-21.639-21.639z" fill="#466089"/></g><g><path d="m464.088 102h-4v-30h4c3.314 0 6 2.686 6 6v18c0 3.314-2.686 6-6 6z" fill="#ffd3b3"/></g><g><path d="m356.088 102h4v-30h-4c-3.314 0-6 2.686-6 6v18c0 3.314 2.687 6 6 6z" fill="#ffd3b3"/></g><g><path d="m360.088 156h100v138h-100z" fill="#6e83b7"/></g><g><path d="m371.329 156 24.535 42.935 14.224-13.13 14.225 13.13 24.534-42.935z" fill="#466089"/></g><g><path d="m427.088 156-17 23-17-23v-12h34z" fill="#fcb98b"/></g><g><path d="m360.088 294v188h42v-155h16v155h42v-188z" fill="#6e83b7"/></g><g><path d="m357.088 502h48v-9c0-13.255-10.745-24-24-24-13.255 0-24 10.745-24 24z" fill="#466089"/></g><g><path d="m410.088 152c-27.614 0-50-22.386-50-50v-30h100v30c0 27.614-22.385 50-50 50z" fill="#ffd3b3"/></g><g><path d="m460.088 92-10-16v-4h10z" fill="#466089"/></g><g><path d="m360.088 92 10-16v-4h-10z" fill="#466089"/></g><g><path d="m360.088 287h100v12h-100z" fill="#466089"/></g><g><path d="m427.088 287h5v12h-5z" fill="#6e83b7"/></g><g><path d="m448.088 287h5v12h-5z" fill="#6e83b7"/></g><g><path d="m388.088 287h5v12h-5z" fill="#6e83b7"/></g><g><path d="m367.088 287h5v12h-5z" fill="#6e83b7"/></g><g><path d="m400.088 285h20v16h-20z" fill="#ffe352"/></g><g><path d="m415.088 502h48v-9c0-13.255-10.745-24-24-24-13.255 0-24 10.745-24 24z" fill="#466089"/></g><g><path d="m393.088 156h-16l20 35 13-12z" fill="#6e83b7"/></g><g><path d="m427.088 156h16l-20 35-13-12z" fill="#6e83b7"/></g><g><path d="m410.088 198.054h4.027l4.844-10.866-8.871-8.188-8.87 8.188 4.844 10.866z" fill="#466089"/></g><g><path d="m414.115 198.054 5.947 69.946-9.974 10-9.973-10 5.947-69.946z" fill="#466089"/></g><g><path d="m432.088 203h21v6h-21z" fill="#466089"/></g><g><path d="m367.088 203h21v6h-21z" fill="#466089"/></g><g><g><path d="m410.088 73.281h49.424l14.576-23.752-15.686-26.902-48.314-12.627-48.313 12.627-15.687 26.902 14.577 23.752z" fill="#466089"/></g><g><path d="m410.088 10-48.313 12.627 22.697 50.654h25.616 25.616l22.698-50.654z" fill="#6e83b7"/></g><g><path d="m360.128 81.961s4.756 6.039 49.961 6.039 49.961-6.039 49.961-6.039v-8.784h-99.922z" fill="#6e83b7"/></g><g><path d="m410.088 73.725c-31.04 0-49.961 8.784-49.961 8.784v-16.47s18.92-8.784 49.961-8.784 49.961 8.784 49.961 8.784v16.471s-18.92-8.785-49.961-8.785z" fill="#466089"/></g><g><path d="m460.049 67.686h3.294v11.529h-3.294z" fill="#ffe352"/></g><g><path d="m356.833 67.686h3.294v11.529h-3.294z" fill="#ffe352"/></g></g><g><path d="m410.088 60s17.02-2.745 17.02-16.471c0-2.745-2.745-6.039-2.745-10.431 0-2.033 1.078-6.69 4.941-9.333l-3.294-6.039c-8.784 3.294-15.922-1.647-15.922-1.647s-7.137 4.941-15.922 1.647l-3.294 6.039c3.863 2.643 4.941 7.3 4.941 9.333 0 4.392-2.745 7.686-2.745 10.431.001 13.726 17.02 16.471 17.02 16.471z" fill="#ffe352"/></g></g><g><path d="m443.088 153h22v6h-22z" fill="#466089"/></g><g><path d="m355.088 153h22v6h-22z" fill="#466089" transform="matrix(-1 0 0 -1 732.177 312)"/></g></g><g><g><g><path d="m347.43 248.104-16.803-78.697c-1.711-7.988-8.773-13.417-16.627-13.407-1.173.001-20 0-20 0l11.965 60.618 7.795 36.403-43.441 43.441 24.042 24.042 44.94-44.94c7.186-7.186 10.245-17.521 8.129-27.46z" fill="#6e83b7"/></g><g><path d="m313.761 253.021-43.442 43.441 24.042 24.042 21.639-21.639z" fill="#466089"/></g><g><path d="m164.57 248.104 16.803-78.697c1.711-7.988 8.773-13.417 16.627-13.407 1.173.001 20 0 20 0l-11.965 60.618-7.795 36.403 43.441 43.441-24.042 24.042-44.94-44.94c-7.186-7.186-10.245-17.521-8.129-27.46z" fill="#6e83b7"/></g><g><path d="m198.239 253.021 43.442 43.441-24.042 24.042-21.639-21.639z" fill="#466089"/></g><g><path d="m310 102h-4v-30h4c3.314 0 6 2.686 6 6v18c0 3.314-2.686 6-6 6z" fill="#ffd3b3"/></g><g><path d="m202 102h4v-30h-4c-3.314 0-6 2.686-6 6v18c0 3.314 2.686 6 6 6z" fill="#ffd3b3"/></g><g><path d="m206 156h100v138h-100z" fill="#6e83b7"/></g><g><path d="m217.241 156 24.534 42.935 14.225-13.13 14.225 13.13 24.534-42.935z" fill="#466089"/></g><g><path d="m273 156-17 23-17-23v-12h34z" fill="#fcb98b"/></g><g><path d="m206 294v188h42v-155h16v155h42v-188z" fill="#6e83b7"/></g><g><path d="m203 502h48v-9c0-13.255-10.745-24-24-24-13.255 0-24 10.745-24 24z" fill="#466089"/></g><g><path d="m256 152c-27.614 0-50-22.386-50-50v-30h100v30c0 27.614-22.386 50-50 50z" fill="#ffd3b3"/></g><g><path d="m306 92-10-16v-4h10z" fill="#466089"/></g><g><path d="m206 92 10-16v-4h-10z" fill="#466089"/></g><g><path d="m206 287h100v12h-100z" fill="#466089"/></g><g><path d="m273 287h5v12h-5z" fill="#6e83b7"/></g><g><path d="m294 287h5v12h-5z" fill="#6e83b7"/></g><g><path d="m234 287h5v12h-5z" fill="#6e83b7"/></g><g><path d="m213 287h5v12h-5z" fill="#6e83b7"/></g><g><path d="m246 285h20v16h-20z" fill="#ffe352"/></g><g><path d="m261 502h48v-9c0-13.255-10.745-24-24-24-13.255 0-24 10.745-24 24z" fill="#466089"/></g><g><path d="m239 156h-16l20 35 13-12z" fill="#6e83b7"/></g><g><path d="m273 156h16l-20 35-13-12z" fill="#6e83b7"/></g><g><path d="m256 198.054h4.027l4.843-10.866-8.87-8.188-8.87 8.188 4.843 10.866z" fill="#466089"/></g><g><path d="m260.027 198.054 5.946 69.946-9.973 10-9.973-10 5.946-69.946z" fill="#466089"/></g><g><path d="m278 203h21v6h-21z" fill="#466089"/></g><g><path d="m213 203h21v6h-21z" fill="#466089"/></g><g><g><path d="m256 73.281h49.424l14.576-23.752-15.686-26.902-48.314-12.627-48.314 12.627-15.686 26.902 14.576 23.752z" fill="#466089"/></g><g><path d="m256 10-48.314 12.627 22.698 50.654h25.616 25.616l22.698-50.654z" fill="#6e83b7"/></g><g><path d="m206.039 81.961s4.756 6.039 49.961 6.039 49.961-6.039 49.961-6.039v-8.784h-99.922z" fill="#6e83b7"/></g><g><path d="m256 73.725c-31.04 0-49.961 8.784-49.961 8.784v-16.47s18.92-8.784 49.961-8.784 49.961 8.784 49.961 8.784v16.471s-18.921-8.785-49.961-8.785z" fill="#466089"/></g><g><path d="m305.961 67.686h3.294v11.529h-3.294z" fill="#ffe352"/></g><g><path d="m202.745 67.686h3.294v11.529h-3.294z" fill="#ffe352"/></g></g><g><path d="m256 60s17.02-2.745 17.02-16.471c0-2.745-2.745-6.039-2.745-10.431 0-2.033 1.078-6.69 4.941-9.333l-3.294-6.039c-8.785 3.294-15.922-1.648-15.922-1.648s-7.137 4.941-15.922 1.647l-3.294 6.039c3.863 2.643 4.941 7.3 4.941 9.333 0 4.392-2.745 7.686-2.745 10.431 0 13.727 17.02 16.472 17.02 16.472z" fill="#ffe352"/></g></g><g><path d="m289 153h22v6h-22z" fill="#466089"/></g><g><path d="m201 153h22v6h-22z" fill="#466089" transform="matrix(-1 0 0 -1 424 312)"/></g></g></g></svg>